<svg width="433" height="97" viewBox="0 0 433 97" fill="none" xmlns="http://www.w3.org/2000/svg">
<path fill-rule="evenodd" clip-rule="evenodd" d="M185.2 46.7C187.816 45.6875 190.061 43.9001 191.634 41.5768C193.207 39.2535 194.032 36.5053 194 33.7C194 22 185.7 16.2 174.3 16.2H144.4V79.82H176.9C186.9 79.82 196.7 72.8199 196.7 62.1199C196.7 49.3999 185.2 46.82 185.2 46.7ZM160 29.4H171.6C172.343 29.3539 173.087 29.4548 173.791 29.6969C174.495 29.9389 175.144 30.3174 175.701 30.8106C176.258 31.3038 176.713 31.9021 177.039 32.5712C177.365 33.2403 177.555 33.9671 177.6 34.71C177.6 34.9366 177.6 35.1666 177.6 35.4C177.568 36.964 176.92 38.4522 175.796 39.5404C174.672 40.6287 173.164 41.2287 171.6 41.21H159.9L160 29.4ZM171.7 66.5H160.1V54H171.4C177.1 54 179.8 56.5 179.8 60.2C179.8 64.82 176.4 66.5 171.7 66.5Z" fill="#ED0007"/>
<path fill-rule="evenodd" clip-rule="evenodd" d="M231.1 14.6C212.7 14.6 201.9 29.3 201.9 47.9C201.9 66.5 212.7 81.2 231.1 81.2C249.5 81.2 260.3 66.6 260.3 47.9C260.3 29.2 249.6 14.6 231.1 14.6ZM231.1 66C222.1 66 217.6 57.9 217.6 47.9C217.6 37.9 222.1 29.9 231.1 29.9C240.1 29.9 244.7 38 244.7 47.9C244.7 58 240.1 66 231.1 66Z" fill="#ED0007"/>
<path fill-rule="evenodd" clip-rule="evenodd" d="M294.2 41.2L292 40.7C286.6 39.6 282.3 38.2 282.3 34.3C282.3 30.1 286.4 28.4 290 28.4C292.456 28.4366 294.878 28.9794 297.115 29.9946C299.352 31.0098 301.355 32.4754 303 34.3L312.9 24.5C308.4 19.4 301.1 14.5 289.7 14.5C276.3 14.5 266.1 22 266.1 34.5C266.1 45.9 274.3 51.5 284.3 53.6L286.5 54.1C294.8 55.8 297.9 57.1 297.9 61.1C297.9 64.9 294.5 67.4 289.3 67.4C283.1 67.4 277.5 64.7 273.2 59.2L263.1 69.2C268.7 75.9 275.8 81.1 289.5 81.1C301.4 81.1 314.1 74.3 314.1 60.4C314.3 45.9 303.3 43.1 294.2 41.2Z" fill="#ED0007"/>
<path fill-rule="evenodd" clip-rule="evenodd" d="M349.7 66C342.7 66 335.4 60.2 335.4 47.5C335.4 36.2 342.2 29.9 349.3 29.9C354.9 29.9 358.2 32.5 360.8 37L373.6 28.5C367.2 18.8 359.6 14.7 349.1 14.7C329.9 14.7 319.5 29.5999 319.5 47.5999C319.5 66.4999 331 81.3 348.9 81.3C361.5 81.3 367.5 76.9 374 67.5L361.1 58.82C358.5 62.9999 355.7 66 349.7 66Z" fill="#ED0007"/>
<path fill-rule="evenodd" clip-rule="evenodd" d="M416.3 16.2V39.6H397V16.2H380.3V79.8H397V54.7H416.3V79.8H433V16.2H416.3Z" fill="#ED0007"/>
<path d="M48.2 0C38.667 0 29.348 2.82688 21.4215 8.12316C13.4951 13.4194 7.31717 20.9473 3.66903 29.7547C0.0208843 38.5621 -0.933636 48.2535 0.926171 57.6034C2.78598 66.9532 7.37658 75.5417 14.1175 82.2825C20.8584 89.0234 29.4468 93.614 38.7967 95.4738C48.1466 97.3337 57.838 96.3791 66.6454 92.731C75.4528 89.0829 82.9806 82.9049 88.2769 74.9785C93.5731 67.052 96.4 57.7331 96.4 48.2C96.4 35.4166 91.3218 23.1567 82.2826 14.1175C73.2433 5.0782 60.9835 0 48.2 0ZM48.2 91.9C39.557 91.9 31.108 89.337 23.9216 84.5352C16.7352 79.7334 11.134 72.9084 7.82649 64.9233C4.51894 56.9381 3.65353 48.1515 5.3397 39.6746C7.02588 31.1976 11.1879 23.411 17.2995 17.2994C23.411 11.1879 31.1976 7.02586 39.6746 5.33968C48.1515 3.65351 56.9382 4.51891 64.9233 7.82646C72.9084 11.134 79.7334 16.7352 84.5352 23.9216C89.3371 31.108 91.9 39.557 91.9 48.2C91.8974 59.7891 87.2924 70.9029 79.0977 79.0976C70.9029 87.2924 59.7892 91.8974 48.2 91.9Z" fill="black"/>
<path d="M68.1001 18.1H64.8001V34.6H31.7001V18.1H28.3001C23.3202 21.3853 19.2332 25.8548 16.4054 31.108C13.5776 36.3613 12.0974 42.234 12.0974 48.2C12.0974 54.1659 13.5776 60.0387 16.4054 65.2919C19.2332 70.5451 23.3202 75.0147 28.3001 78.3H31.7001V61.82H64.8001V78.32H68.1001C73.0821 75.0363 77.1712 70.5673 80.0005 65.3138C82.8298 60.0604 84.3109 54.1868 84.3109 48.22C84.3109 42.2531 82.8298 36.3795 80.0005 31.1261C77.1712 25.8727 73.0821 21.4037 68.1001 18.12V18.1ZM27.1001 71.82C23.9987 69.0643 21.4705 65.7247 19.6599 61.992C17.8492 58.2592 16.7916 54.2063 16.5474 50.0647C16.3032 45.9231 16.8771 41.774 18.2365 37.8543C19.5959 33.9346 21.7141 30.321 24.4701 27.22C25.2961 26.2973 26.1742 25.4225 27.1001 24.6V71.82ZM64.8001 57.22H31.7001V39.1H64.8001V57.22ZM69.3001 71.72V61.72V34.6V24.6C72.3939 27.378 74.9099 30.7385 76.7045 34.4893C78.4991 38.24 79.537 42.3077 79.7589 46.4598C79.9809 50.6118 79.3825 54.767 77.998 58.6877C76.6135 62.6084 74.4701 66.2179 71.6901 69.31C70.9339 70.1461 70.1362 70.9438 69.3001 71.7V71.72Z" fill="black"/>
</svg>
