<svg xmlns="http://www.w3.org/2000/svg" width="500" height="500" fill="none" viewBox="0 0 500 500"><rect width="500" height="500" fill="#fff" rx="250"/><path fill="#E70021" d="M126.893 148.472H429V297.757L375.937 351.528H70.9998V205.073L126.893 148.472Z"/><path fill="#fff" d="M165.412 302.198C158.723 302.198 152.434 300.982 146.545 298.552C140.657 296.121 135.549 292.724 131.223 288.36C126.897 283.995 123.463 278.821 120.92 272.836C118.378 266.851 117.106 260.349 117.106 253.329V253.057C117.106 246.218 118.355 239.806 120.853 233.821C123.351 227.836 126.785 222.617 131.156 218.162C135.527 213.707 140.723 210.219 146.745 207.699C152.768 205.18 159.348 203.92 166.486 203.919C171.302 203.92 175.673 204.392 179.599 205.336C189.459 207.602 197.792 213.614 204.935 220.576L187.986 236.282C179.404 227.678 168.138 225.5 157.185 229.771C154.376 230.867 152.122 232.853 150.159 235.102C148.197 237.352 146.658 240.006 145.543 243.066C144.428 246.126 143.871 249.367 143.871 252.789V253.057C143.871 256.567 144.428 259.874 145.543 262.979C146.658 266.084 148.197 268.762 150.159 271.013C152.122 273.264 154.464 275.041 157.185 276.346C159.906 277.651 162.917 278.303 166.216 278.303C168.626 278.303 170.834 278.033 172.84 277.493C179.336 275.395 185.261 271.845 189.945 266.829L205.604 283.911C203.372 286.973 202.234 286.764 199.602 289.373C196.971 291.982 193.983 294.232 190.637 296.121C187.291 298.011 183.544 299.496 179.396 300.577C175.249 301.658 170.587 302.198 165.412 302.198ZM254.865 301.926C246.48 301.926 238.518 300.621 230.979 298.012C223.441 295.403 217.635 291.488 211.836 286.267L228.444 269.283C237.809 276.844 243.622 280.194 254.506 280.194C257.986 280.194 260.64 279.631 262.469 278.505C264.299 277.379 265.214 275.782 265.214 273.713V273.441C265.214 272.453 264.99 271.576 264.544 270.811C264.097 270.046 263.272 269.303 262.067 268.582C260.862 267.861 259.257 267.164 257.251 266.489C255.244 265.815 252.634 265.118 249.422 264.398C244.426 263.228 241.081 261.946 236.799 260.551C232.516 259.155 228.792 257.355 225.626 255.149C222.459 252.944 219.962 250.199 218.132 246.914C216.303 243.629 215.388 239.557 215.388 234.699V234.427C215.388 230.019 216.213 225.969 217.865 222.279C219.516 218.589 221.925 215.395 225.091 212.695C228.257 209.995 232.07 207.902 236.531 206.416C254.762 200.228 273.361 205.632 286.366 216.917L270.247 234.009C264.378 229.264 258.453 226.202 250.985 225.923C247.863 225.923 245.521 226.509 243.959 227.678C242.398 228.848 241.617 230.288 241.617 231.996V232.268C241.617 233.347 241.862 234.292 242.352 235.102C242.842 235.913 243.69 236.655 244.895 237.329C246.099 238.003 247.75 238.678 249.846 239.354C251.942 240.03 254.597 240.727 257.809 241.447C263.161 242.617 268.001 243.989 272.327 245.565C276.652 247.14 280.332 249.052 283.366 251.302C286.4 253.551 288.721 256.274 290.325 259.469C291.931 262.665 292.732 266.468 292.734 270.879V271.147C292.732 276.008 291.819 280.328 289.99 284.108C288.161 287.887 285.597 291.104 282.296 293.758C278.997 296.413 275.026 298.438 270.386 299.833C265.748 301.228 260.574 301.926 254.865 301.926ZM342.214 302.196C335.526 302.196 329.237 300.981 323.347 298.55C317.46 296.119 312.352 292.722 308.027 288.358C303.7 283.993 300.267 278.819 297.723 272.834C295.181 266.849 293.909 260.347 293.909 253.327V253.055C293.909 246.216 295.159 239.804 297.655 233.819C300.153 227.835 303.588 222.615 307.959 218.16C312.33 213.705 317.526 210.218 323.549 207.698C329.569 205.178 336.15 203.918 343.288 203.918C348.104 203.918 352.475 204.39 356.402 205.335C366.261 207.6 374.595 213.612 381.737 220.574L364.789 236.28C356.206 227.677 344.94 225.499 333.988 229.77C331.179 230.865 328.926 232.851 326.961 235.101C324.999 237.35 323.461 240.005 322.345 243.064C321.232 246.124 320.674 249.365 320.674 252.787V253.055C320.674 256.565 321.232 259.872 322.345 262.977C323.461 266.082 324.999 268.76 326.961 271.011C328.926 273.262 331.267 275.04 333.988 276.344C336.71 277.649 339.72 278.301 343.019 278.301C345.428 278.301 347.635 278.031 349.644 277.491C356.139 275.394 362.064 271.844 366.747 266.827L382.407 283.909C380.176 286.971 379.036 286.762 376.406 289.371C373.774 291.98 370.786 294.23 367.439 296.119C364.094 298.009 360.346 299.494 356.198 300.575C352.052 301.656 347.39 302.196 342.214 302.196Z"/></svg>