<svg width="500" height="500" viewBox="0 0 500 500" fill="none" xmlns="http://www.w3.org/2000/svg">
<rect width="500" height="500" rx="250" fill="white"/>
<path d="M184.381 408.01C133.433 408.01 91.9995 366.552 91.9995 315.64V276.782H143.456V315.64C143.456 338.201 161.809 356.554 184.369 356.554C206.954 356.554 225.283 338.201 225.283 315.64V276.782H276.763V315.64C276.775 366.552 235.317 408.01 184.381 408.01Z" fill="#00FF8C"/>
<path d="M315.629 91.9902C366.578 91.9902 408.001 133.424 408.001 184.373C408.001 235.31 366.578 276.769 315.629 276.769H276.771V225.287H315.629C338.19 225.287 356.544 206.934 356.544 184.373C356.544 161.812 338.19 143.459 315.629 143.459H276.771V91.9902H315.629Z" fill="black"/>
</svg>
