<svg width="635" height="145" viewBox="0 0 635 145" fill="none" xmlns="http://www.w3.org/2000/svg">
<path d="M164.083 32.2C142.483 32.2 125.483 49.9 125.483 72.6C125.483 95.3 142.383 112.4 164.083 112.4C185.783 112.4 202.683 94.9 202.683 72.6C202.683 50.3 185.783 32.2 164.083 32.2ZM164.083 96.1C152.583 96.1 143.983 86 143.983 72.5C143.983 59 152.683 48.4 164.083 48.4C175.483 48.4 184.383 58.8 184.383 72.5C184.383 86.2 175.683 96.1 164.083 96.1ZM296.283 0H281.883C280.683 0 279.683 1 279.683 2.2V108C279.683 109.2 280.683 110.2 281.883 110.2H296.283C297.483 110.2 298.483 109.2 298.483 108V2.2C298.483 1 297.483 0 296.283 0ZM265.083 34.1C261.683 33.4 256.083 32.1 247.583 32.1C232.683 32.1 217.783 36.7 217.783 60.2V107.8C217.783 109 218.783 110 219.983 110H234.383C235.583 110 236.583 109 236.583 107.8V60.6C236.583 57.2 237.183 48.6 250.083 48.6C262.983 48.6 260.583 49.5 261.683 49.6C262.783 49.8 263.783 49.3 264.083 48.2L267.183 36.5C267.583 35.2 266.683 34.3 265.183 33.9L265.083 34.1ZM116.983 34.5H101.583C100.583 34.5 99.7831 35.1 99.5831 36.1L84.9831 87.8L71.5831 41.8C70.3831 37.5 66.4831 34.5 61.9831 34.5H57.2831C52.7831 34.5 48.8831 37.5 47.6831 41.8L34.2831 87.8L19.6831 36.1C19.4831 35.2 18.5831 34.5 17.6831 34.5H2.1831C0.7831 34.5 -0.3169 35.9 0.0830998 37.3L21.0831 103.1C22.3831 107.3 26.2831 110.1 30.6831 110.1H36.8831C41.2831 110.1 45.2831 107.1 46.5831 102.9L59.5831 58.9L72.5831 102.9C73.8831 107.1 77.7831 110.1 82.2831 110.1H88.4831C92.8831 110.1 96.7831 107.3 98.0831 103.1L119.083 37.3C119.483 35.9 118.483 34.5 116.983 34.5ZM632.383 34.5H617.683C617.683 34.5 615.983 34.5 615.383 35.9L595.183 89.2L574.983 35.8C574.683 35 573.783 34.5 572.883 34.5H558.183C556.183 34.5 555.483 36.2 555.983 37.4L585.483 111.4L573.583 141.5C572.983 143 573.583 144.5 575.583 144.5H590.083C590.983 144.5 591.783 144 592.083 143.1L634.283 37.5C635.083 35.7 633.783 34.4 632.283 34.4L632.383 34.5ZM380.983 0H366.583C365.383 0 364.383 1 364.383 2.2V33.9C361.583 33.3 356.583 32.2 348.583 32.2C319.883 32.2 313.883 58 313.883 72.1C313.883 103.3 332.583 112.4 350.183 112.4C367.783 112.4 375.283 108.8 380.183 106.7C383.083 105.4 383.083 103.7 383.083 102.2V2.2C383.083 1 382.083 0 380.883 0H380.983ZM364.383 94.4C364.383 94.4 358.683 96.1 352.283 96.1C337.183 96.1 333.583 85.4 333.583 72.8C333.583 60.2 333.083 48.6 351.583 48.6C370.083 48.6 364.383 50.3 364.383 50.3V94.4ZM516.783 32.2C503.983 32.2 496.783 33.9 489.883 35.8C487.983 36.3 487.283 37.6 487.783 39.7L489.983 48.4C490.283 49.7 491.383 51.4 493.483 50.8C497.983 49.7 504.883 47.5 514.883 47.5C524.883 47.5 527.583 51.3 527.583 60.2H515.083C488.583 60.2 481.183 74.2 481.183 85.6C481.183 97 488.183 112.2 513.083 112.2C537.983 112.2 541.183 107.5 543.283 106.4C544.983 105.5 545.983 104.8 545.983 101.9V58.3C545.983 38.6 534.283 32 516.683 32L516.783 32.2ZM527.383 95.6C527.383 95.6 521.583 97.5 513.783 97.5C505.983 97.5 499.883 92.1 499.883 86.5C499.883 80.9 504.583 74.7 514.883 74.7H527.383V95.6ZM433.583 32.2C418.683 32.2 408.483 35.8 403.583 37.9C400.683 39.2 400.683 40.9 400.683 42.4V142.4C400.683 143.6 401.683 144.6 402.883 144.6H417.283C418.483 144.6 419.483 143.6 419.483 142.4V110.7C422.283 111.3 427.283 112.4 435.283 112.4C463.983 112.4 469.983 86.6 469.983 72.5C469.983 41.3 451.283 32.2 433.683 32.2H433.583ZM432.183 95.9C425.883 95.9 419.383 94.2 419.383 94.2V50.1C419.383 50.1 425.083 48.4 431.483 48.4C446.583 48.4 450.183 59.1 450.183 71.7C450.183 84.3 450.683 95.9 432.183 95.9Z" fill="#FF1F3E"/>
</svg>
