<svg xmlns="http://www.w3.org/2000/svg" width="609" height="126" fill="none" viewBox="0 0 609 126"><path fill="#000" d="M154.093 75.8553V75.4192H162.94V75.8553C162.94 82.6015 166.793 87.767 178.533 87.767H179.409C188.432 87.767 193.337 83.9138 193.337 78.132V77.6959C193.337 72.2663 190.184 69.9015 184.667 68.585L170.65 65.1679C162.151 63.0673 156.374 58.4217 156.374 49.2269V48.3506C156.374 38.1915 164.432 31.4454 178.273 31.4454H179.149C192.725 31.4454 200.524 38.8037 200.524 48.8747V49.3108H191.853V48.8747C191.853 43.705 187.736 38.7156 179.153 38.7156H178.277C169.518 38.7156 164.877 42.7449 164.877 48.4387V48.8747C164.877 53.5162 167.594 56.2331 173.635 57.7215L187.74 61.1386C196.323 63.2392 201.844 67.6207 201.844 76.9915V77.8678C201.844 88.3791 193.698 95.0373 179.333 95.0373H178.457C160.675 95.0373 154.105 87.1548 154.105 75.8553H154.093Z"/><path fill="#000" d="M208.658 32.1455H216.892V41.2564H208.658V32.1455ZM208.658 49.663H216.892V94.337H208.658V49.663Z"/><path fill="#000" d="M224.766 49.6672H232.649V56.8494C236.59 50.9795 240.007 49.1431 246.313 49.1431H247.189C256.388 49.1431 261.642 53.9606 261.642 65.2601V94.3413H253.407V66.3964C253.407 58.6901 250.518 55.6209 244.909 55.6209H244.032C237.026 55.6209 232.997 60.9625 232.997 68.6731V94.3371H224.762V49.663L224.766 49.6672Z"/><path fill="#000" d="M268.292 97.6704H276.526V98.1064C276.526 102.224 280.379 104.064 287.65 104.064H288.002C294.66 104.064 298.865 102.048 298.865 96.0058V85.8467C295.448 91.0164 292.295 92.9409 285.989 92.9409H285.113C274.078 92.9409 267.42 84.4421 267.42 71.4823V70.606C267.42 57.6419 274.078 49.1473 285.025 49.1473H285.901C292.471 49.1473 295.712 50.9879 299.13 56.7698V49.6756H307.012V96.0142C307.012 106.173 299.742 110.203 287.654 110.203H287.302C272.761 110.203 268.292 104.773 268.292 98.1148V97.6704ZM287.302 86.5427H288.178C295.624 86.5427 299.389 81.6372 299.389 71.4781V70.6018C299.389 60.4427 295.624 55.5371 288.178 55.5371H287.302C280.119 55.5371 276.09 60.5307 276.09 70.6018V71.4781C276.09 81.5491 280.119 86.5427 287.302 86.5427Z"/><path fill="#000" d="M314.886 32.1455H323.121V94.337H314.886V32.1455Z"/><path fill="#000" d="M329.942 72.4382V71.5619C329.942 57.1974 337.036 49.1389 349.824 49.1389H350.701C362.789 49.1389 369.359 56.145 369.359 70.7736C369.359 72.174 369.271 73.2264 369.182 73.9266H338.349C338.613 83.8257 342.642 88.7313 349.824 88.7313H350.701C358.495 88.7313 360.16 83.7377 360.16 81.1969V80.7608H368.482V81.1969C368.482 86.7146 364.717 94.8611 350.965 94.8611H350.089C336.86 94.8611 329.942 86.8026 329.942 72.4382ZM360.952 67.7968V67.6206C360.952 58.8619 357.099 55.1807 350.617 55.1807H349.741C343.523 55.1807 339.053 59.2099 338.441 67.7926H360.952V67.7968Z"/><path fill="#000" d="M375.136 75.8553V75.4192H383.983V75.8553C383.983 82.6015 387.836 87.767 399.576 87.767H400.452C409.475 87.767 414.381 83.9138 414.381 78.132V77.6959C414.381 72.2663 411.228 69.9015 405.71 68.585L391.693 65.1679C383.195 63.0673 377.417 58.4217 377.417 49.2269V48.3506C377.417 38.1915 385.476 31.4454 399.316 31.4454H400.192C413.768 31.4454 421.567 38.8037 421.567 48.8747V49.3108H412.896V48.8747C412.896 43.705 408.779 38.7156 400.196 38.7156H399.32C390.561 38.7156 385.916 42.7449 385.916 48.4387V48.8747C385.916 53.5162 388.633 56.2331 394.675 57.7215L408.779 61.1386C417.362 63.2392 422.884 67.6207 422.884 76.9915V77.8678C422.884 88.3791 414.737 95.0373 400.372 95.0373H399.496C381.715 95.0373 375.145 87.1548 375.145 75.8553H375.136Z"/><path fill="#000" d="M435.135 85.3142V56.4091H427.077V49.663H433.47C434.783 49.663 435.487 48.8747 435.487 47.5582V38.0112H443.37V49.663H454.493V56.4091H443.37V83.8257C443.37 86.7146 444.51 87.5909 447.135 87.5909H454.493V94.337H444.246C437.764 94.337 435.135 91.3602 435.135 85.3142Z"/><path fill="#000" d="M458.69 72.4382V71.5619C458.69 57.1974 465.52 49.1389 478.836 49.1389H479.713C493.029 49.1389 499.859 57.1974 499.859 71.5619V72.4382C499.859 86.8026 493.025 94.8611 479.713 94.8611H478.836C465.52 94.8611 458.69 86.8026 458.69 72.4382ZM478.836 88.4672H479.713C487.071 88.4672 491.188 83.6497 491.188 72.4382V71.5619C491.188 60.3504 487.071 55.5329 479.713 55.5329H478.836C471.478 55.5329 467.361 60.3504 467.361 71.5619V72.4382C467.361 83.6497 471.478 88.4672 478.836 88.4672Z"/><path fill="#000" d="M506.685 49.6672H514.567V57.9018C518.161 51.6839 519.825 49.6672 525.255 49.6672H530.86V57.2855H523.678C518.425 57.2855 514.919 61.6669 514.919 68.3209V94.3371H506.685V49.663V49.6672Z"/><path fill="#000" d="M532.86 72.4382V71.5619C532.86 57.1974 539.954 49.1389 552.742 49.1389H553.619C565.706 49.1389 572.277 56.145 572.277 70.7736C572.277 72.174 572.189 73.2264 572.1 73.9266H541.267C541.531 83.8257 545.56 88.7313 552.742 88.7313H553.619C561.413 88.7313 563.078 83.7377 563.078 81.1969V80.7608H571.4V81.1969C571.4 86.7146 567.635 94.8611 553.883 94.8611H553.006C539.778 94.8611 532.86 86.8026 532.86 72.4382ZM563.87 67.7968V67.6206C563.87 58.8619 560.017 55.1807 553.535 55.1807H552.659C546.441 55.1807 541.971 59.2099 541.359 67.7926H563.87V67.7968Z"/><path fill="#000" d="M105.917 57.6549C105.657 58.5606 105.368 59.4578 105.053 60.3383C104.722 61.2649 104.366 62.1748 103.976 63.072L90.9322 62.7995C90.9322 63.0636 90.9322 63.3236 90.9238 63.5877L126.378 64.3298C126.424 62.2377 126.369 60.1497 126.206 58.0784L105.913 57.6549H105.917Z"/><path fill="#000" d="M78.5467 1.59326L78.1903 2.47794C80.1567 3.21587 82.0602 4.09216 83.8925 5.08585L71.2764 36.3598C72.0437 36.5946 72.811 36.8671 73.5699 37.1732C73.6076 37.19 73.6453 37.2025 73.6789 37.2193L86.9406 4.33953C86.9029 4.32276 86.8652 4.31018 86.8316 4.29341C84.0979 3.19071 81.3307 2.29346 78.5467 1.59326Z"/><path fill="#000" d="M91.2296 10.0585C92.8103 11.3708 94.3029 12.788 95.6949 14.3016L77.6953 39.2486C78.3242 39.6343 78.9363 40.041 79.5233 40.4687L100.274 11.7146C98.047 10.1046 95.6949 8.62453 93.2253 7.29541L91.2296 10.0627V10.0585Z"/><path fill="#000" d="M100.756 20.9346C101.829 22.6452 102.789 24.4313 103.632 26.2846L83.1797 43.6553C83.6074 44.0997 84.0183 44.5567 84.4166 45.0305L111.443 22.075C109.77 20.096 107.971 18.2135 106.051 16.4399L100.76 20.9346H100.756Z"/><path fill="#000" d="M116.194 28.4814L106.185 33.4708C106.688 35.3869 107.07 37.3534 107.322 39.3617L87.3726 49.307C87.6157 49.743 87.8505 50.1833 88.0686 50.6277L119.795 34.8125C118.718 32.6365 117.514 30.5233 116.189 28.4814H116.194Z"/><path fill="#000" d="M107.67 46.1039C107.628 48.0913 107.456 50.0535 107.162 51.9738L90.0137 55.8228C90.1101 56.1918 90.2023 56.5606 90.282 56.9338L124.877 49.1688C124.382 46.9634 123.774 44.7873 123.049 42.649L107.67 46.0998V46.1039Z"/><path fill="#000" d="M125.443 73.8056L101.8 67.4493C100.911 69.0132 99.934 70.5268 98.8732 71.9691L90.1019 69.6128C90.0516 69.8098 90.0013 70.0027 89.9468 70.1998L124.185 79.4029C124.692 77.5413 125.107 75.6755 125.439 73.8014L125.443 73.8056Z"/><path fill="#000" d="M96.2024 75.2772C95.1206 76.4973 93.9718 77.6587 92.7643 78.753L87.6659 75.9397C87.5862 76.0906 87.5024 76.2416 87.4185 76.3925L118.462 93.52C119.296 92.0064 120.076 90.4509 120.797 88.8493L96.1982 75.2772H96.2024Z"/><path fill="#000" d="M89.8042 81.2267C88.6386 82.1198 87.4269 82.9542 86.1775 83.734L83.7666 81.5077C83.6786 81.6083 83.5863 81.7047 83.4941 81.8054L109.54 105.868C110.605 104.723 111.628 103.532 112.609 102.3L89.8042 81.2309V81.2267Z"/><path fill="#000" d="M101.33 113.285L83.016 85.5286C82.2907 85.9018 81.5569 86.254 80.8106 86.5894C80.8106 86.5894 79.4647 87.168 79.1587 87.2938L97.9046 115.7C99.0744 114.933 100.215 114.127 101.334 113.285H101.33Z"/><path fill="#000" d="M76.0475 88.409C75.7372 88.5054 73.7708 89.0756 73.188 89.2182C73.188 89.2182 72.6388 89.3524 72.4878 89.3859L84.2486 122.463C85.4058 122.052 86.5504 121.612 87.6825 121.134L76.0475 88.4048V88.409Z"/><path fill="#000" d="M68.9787 90.0149C67.9473 90.2371 66.9033 90.3964 65.8467 90.5012L69.3854 125.783C70.4378 125.679 71.486 125.549 72.5258 125.394L68.9787 90.0191V90.0149Z"/><path fill="#000" d="M61.8046 90.5934C60.9241 90.5473 60.0437 90.4634 59.1632 90.3335L54.1528 125.44C55.0291 125.565 55.9096 125.674 56.7859 125.767L61.8046 90.5976V90.5934Z"/><path fill="#000" d="M20.4765 68.1285C20.7365 67.2229 21.0258 66.3256 21.3402 65.4452C21.6715 64.5185 22.0279 63.6087 22.4178 62.7115L35.4615 62.984C35.4615 62.7198 35.4615 62.4599 35.4699 62.1958L0.0157544 61.4536C-0.0303661 63.5458 0.02414 65.6338 0.187658 67.7051L20.4807 68.1285H20.4765Z"/><path fill="#000" d="M47.8509 124.19L48.2073 123.305C46.2409 122.568 44.3374 121.691 42.5051 120.698L55.1212 89.4236C54.3539 89.1888 53.5867 88.9163 52.8278 88.6102C52.79 88.5934 52.7523 88.5809 52.7187 88.5641L39.457 121.444C39.4947 121.461 39.5325 121.473 39.566 121.49C42.2997 122.593 45.0669 123.49 47.8509 124.19Z"/><path fill="#000" d="M35.164 115.725C33.5833 114.413 32.0906 112.995 30.6986 111.482L48.6983 86.5348C48.0693 86.1491 47.4572 85.7424 46.8702 85.3147L26.1201 114.069C28.3465 115.679 30.6986 117.159 33.1682 118.488L35.164 115.721V115.725Z"/><path fill="#000" d="M25.6376 104.849C24.5643 103.138 23.6041 101.352 22.7614 99.499L43.2138 82.1283C42.7861 81.6839 42.3752 81.2269 41.9769 80.7531L14.9502 103.708C16.6232 105.687 18.4219 107.57 20.3422 109.344L25.6335 104.849H25.6376Z"/><path fill="#000" d="M10.2044 97.3019L20.2126 92.3125C19.7094 90.3964 19.3279 88.43 19.0763 86.4216L39.0256 76.4763C38.7824 76.0403 38.5476 75.6001 38.3296 75.1556L6.59863 90.9708C7.67617 93.1468 8.8795 95.26 10.2044 97.3019Z"/><path fill="#000" d="M18.7238 79.6797C18.7657 77.6923 18.9376 75.73 19.2311 73.8098L36.3796 69.9608C36.2832 69.5918 36.1909 69.2229 36.1112 68.8497L1.5166 76.6105C2.01135 78.8159 2.6193 80.992 3.34465 83.1303L18.728 79.6797H18.7238Z"/><path fill="#000" d="M0.950684 51.9778L24.5937 58.3341C25.4826 56.7702 26.4595 55.2566 27.5203 53.8143L36.2916 56.1706C36.3419 55.9735 36.3922 55.7807 36.4467 55.5836L2.20433 46.3763C1.697 48.2378 1.28192 50.1036 0.950684 51.9778Z"/><path fill="#000" d="M30.191 50.5062C31.2728 49.2861 32.4216 48.1247 33.6291 47.0304L38.7275 49.8438C38.8072 49.6929 38.8911 49.5419 38.9749 49.391L7.93157 32.2593C7.09721 33.7729 6.31735 35.3284 5.59619 36.93L30.1952 50.5021L30.191 50.5062Z"/><path fill="#000" d="M36.5937 44.5567C37.7593 43.6636 38.971 42.8291 40.2204 42.0493L42.6313 44.2756C42.7193 44.175 42.8116 44.0786 42.9038 43.978L16.8583 19.9156C15.7933 21.0602 14.7703 22.251 13.7891 23.4836L36.5937 44.5525V44.5567Z"/><path fill="#000" d="M25.0674 12.4987L43.3815 40.2549C44.1068 39.8817 44.8406 39.5295 45.5869 39.1941C45.5869 39.1941 46.9328 38.6155 47.2389 38.4897L28.4971 10.0836C27.3273 10.8509 26.1869 11.6559 25.0674 12.4987Z"/><path fill="#000" d="M50.3458 37.3745C50.6561 37.278 52.6225 36.7078 53.2053 36.5653C53.2053 36.5653 53.7546 36.4311 53.9055 36.3976L42.1447 3.32068C40.9875 3.73157 39.8429 4.17182 38.7109 4.64979L50.3458 37.3787V37.3745Z"/><path fill="#000" d="M57.415 35.7686C58.4464 35.5464 59.4904 35.3871 60.547 35.2823L57.0125 0C55.9601 0.10482 54.9119 0.234796 53.8721 0.389929L57.4192 35.7644L57.415 35.7686Z"/><path fill="#000" d="M64.5931 35.19C65.4736 35.2361 66.3541 35.32 67.2346 35.4499L72.2408 0.34376C71.3645 0.217977 70.484 0.108965 69.6077 0.0167236L64.5889 35.1858L64.5931 35.19Z"/><path fill="#000" d="M588.758 94.3646V82.805H584.786V81.25H594.678V82.805H590.706V94.3646H588.758Z"/><path fill="#000" d="M596.213 94.3646V81.25H598.91L602.545 91.7791L606.03 81.25H608.821V94.3646H606.854V83.9853L603.37 94.3646H601.627L598.18 83.9853V94.3646H596.213Z"/></svg>