<svg xmlns="http://www.w3.org/2000/svg" width="195" height="31" fill="none" viewBox="0 0 195 31"><path fill="#293276" d="M157.673 5.62799C149.833 5.62799 145.148 10.3185 145.148 18.249C145.148 26.1787 149.833 30.8694 157.673 30.8694C165.511 30.8694 170.148 26.1787 170.148 18.249C170.148 10.3185 165.511 5.62799 157.673 5.62799ZM157.673 25.7922C153.847 25.7922 151.602 22.988 151.602 18.249C151.602 13.5094 153.847 10.657 157.673 10.657C161.496 10.657 163.742 13.5094 163.742 18.249C163.742 22.988 161.496 25.7922 157.673 25.7922ZM194.861 22.8907C194.861 27.8713 190.799 30.8692 183.963 30.8692C177.081 30.8692 173.065 27.7749 173.065 22.504H178.944C178.944 25.2118 180.809 26.8075 183.963 26.8075C187.022 26.8075 188.79 25.647 188.79 23.6163C188.79 21.0531 185.971 20.5697 182.816 20.038C178.657 19.361 173.686 18.5391 173.686 12.9784C173.686 8.38495 177.51 5.62822 183.963 5.62822C190.369 5.62822 194.192 8.57752 194.192 13.6067H188.313C188.313 11.0441 186.735 9.59332 183.963 9.59332C181.334 9.59332 179.757 10.6574 179.757 12.4459C179.757 14.6218 182.386 15.0576 185.445 15.5889C189.699 16.3146 194.861 17.1849 194.861 22.8907ZM86.1119 15.3475V30.3859H79.8027V15.6376C79.8027 12.4946 78.1295 10.6572 75.3087 10.6572C72.1544 10.6572 70.2903 13.0263 70.2903 16.9914V30.3859H63.9804V15.6376C63.9804 12.4946 62.3551 10.6572 59.535 10.6572C56.3325 10.6572 54.468 13.0263 54.468 16.9914V30.3859H48.1593V6.11177H54.468V12.2552L54.4481 14.4238C55.0425 10.0435 58.0479 5.62822 62.3079 5.62822C66.7228 5.62822 69.5449 7.97268 70.1606 12.255L70.2408 14.4238C70.8068 10.0435 73.7157 5.62822 77.8907 5.62822C83.0526 5.62822 86.1119 9.20656 86.1119 15.3475ZM140.941 15.5889V30.3859H134.631V15.8792C134.631 12.5914 132.91 10.6572 129.946 10.6572C126.601 10.6572 124.641 13.1227 124.641 17.2335V30.3859H118.332V6.112H124.641V12.255L124.632 14.4238C125.248 10.0526 128.251 5.62822 132.528 5.62822C137.834 5.62822 140.941 9.3034 140.941 15.5889ZM43.6731 16.3587H43.6704C43.0178 9.54322 38.7599 5.62844 32.0015 5.62844C24.5446 5.62844 20.1473 10.2705 20.1473 18.2484C20.1473 26.1789 24.5446 30.8697 32.0015 30.8697C38.3577 30.8697 42.7016 27.6323 43.6956 22.1091H37.5385C36.8151 24.5439 34.8211 26.0343 32.0013 26.0343C28.8724 26.0343 26.8422 23.1968 26.3564 19.2675H43.7609V18.2484C43.7609 17.6207 43.7306 17.0156 43.6763 16.4298L43.6731 16.3587ZM26.3426 16.3587C26.8241 12.4423 28.8579 10.4149 32.0015 10.4149C35.0984 10.4149 37.1318 12.4423 37.5681 16.3587H26.3426ZM113.846 16.3587H113.843C113.191 9.54322 108.933 5.62844 102.174 5.62844C94.7175 5.62844 90.3201 10.2705 90.3201 18.2484C90.3201 26.1789 94.7175 30.8697 102.174 30.8697C108.531 30.8697 112.875 27.6323 113.869 22.1091H107.711C106.988 24.5439 104.994 26.0343 102.174 26.0343C99.0456 26.0343 97.0149 23.1968 96.5291 19.2675H113.934V18.2484C113.934 17.6207 113.903 17.0161 113.849 16.4305L113.846 16.3587ZM96.5154 16.3587C96.9968 12.4423 99.0307 10.4149 102.174 10.4149C105.271 10.4149 107.305 12.4423 107.741 16.3587H96.5154ZM10.2809 6.11177H17.7377V10.5122H10.2809V22.2136C10.2809 24.4862 11.7144 25.7927 14.1051 25.7927C15.2526 25.7927 16.4474 25.5019 17.3073 25.0186V29.7577C15.8734 30.4339 13.9135 30.8699 12.0973 30.8699C6.98288 30.8699 3.97126 27.9688 3.97126 23.0364V10.5122H0V6.11177H3.97126V1.52588e-05H10.2809V6.11177Z"/></svg>