<svg width="771" height="262" viewBox="0 0 771 262" fill="none" xmlns="http://www.w3.org/2000/svg">
<path d="M76.41 261.38C34.27 261.38 0 227.09 0 184.98V152.84H42.56V184.98C42.56 203.64 57.74 218.82 76.4 218.82C95.08 218.82 110.24 203.64 110.24 184.98V152.84H152.82V184.98C152.83 227.09 118.54 261.38 76.41 261.38Z" fill="#00FF8C"/>
<path d="M303.94 88.28V42.57H317.91V87.71C317.91 102.45 325.49 110.4 337.97 110.4C350.33 110.4 357.93 102.9 357.93 88.28V42.57H371.88V87.59C371.88 111.29 358.51 123.2 337.75 123.2C317.09 123.2 303.94 111.29 303.94 88.28ZM386 62.24H399.72V71.55C403.59 65.88 409.13 61 418.44 61C431.94 61 439.76 70.06 439.76 84.03V122.13H426.04V88.1C426.04 78.81 421.38 73.48 413.21 73.48C405.29 73.48 399.71 79.03 399.71 88.34V122.12H385.99V62.24H386ZM457.12 62.24H470.84V122.12H457.12V62.24ZM456.55 40.02H471.29V53.05H456.55V40.02ZM491.59 105.58V74.04H483.99V62.25H491.59V45.81H505.31V62.25H521.41V74.06H505.31V103.43C505.31 108.75 508.04 110.91 512.69 110.91C515.74 110.91 518.47 110.24 521.19 108.88V120.1C517.8 122.03 513.94 123.17 508.83 123.17C498.73 123.16 491.59 118.73 491.59 105.58ZM572.35 87.99C571.43 79.15 566.21 72.22 557.15 72.22C548.76 72.22 542.86 78.68 541.6 87.99H572.35ZM528 92.41V92.19C528 75.08 540.13 61.01 557.25 61.01C576.32 61.01 585.95 75.97 585.95 93.2C585.95 94.46 585.85 95.7 585.73 97.06H541.72C543.21 106.82 550.12 112.26 558.96 112.26C565.65 112.26 570.42 109.76 575.18 105.11L583.23 112.26C577.56 119.07 569.73 123.48 558.74 123.48C541.37 123.48 528 110.9 528 92.41ZM642.88 92.3V92.08C642.88 80.52 634.71 72.92 625.52 72.92C616.11 72.92 608.28 80.17 608.28 92.08V92.3C608.28 103.87 616.23 111.47 625.52 111.47C634.71 111.47 642.88 103.75 642.88 92.3ZM594.44 92.3V92.08C594.44 72.22 607.94 61 622.23 61C632.11 61 638.35 65.98 642.66 71.55V39.34H656.38V122.13H642.66V112.15C638.23 118.41 631.99 123.39 622.23 123.39C608.18 123.38 594.44 112.14 594.44 92.3ZM334.16 180.01C344.71 180.01 351.3 174.11 351.3 165.82V165.6C351.3 156.31 344.61 151.44 334.16 151.44H317.94V180.02H334.16V180.01ZM304 138.73H335.3C353.79 138.73 365.46 149.28 365.46 165.28V165.5C365.46 183.31 351.17 192.59 333.71 192.59H317.94V218.12H303.99V138.73H304ZM411.75 193.04C408.23 191.68 403.36 190.66 398.03 190.66C389.41 190.66 384.31 194.17 384.31 199.95V200.17C384.31 205.84 389.41 209.03 395.88 209.03C404.94 209.03 411.76 203.93 411.76 196.43V193.04H411.75ZM411.4 218.1V210.72C407.32 215.6 401.08 219.36 392.01 219.36C380.67 219.36 370.69 212.88 370.69 200.87V200.65C370.69 187.38 381.02 181.03 394.96 181.03C402.22 181.03 406.87 182.04 411.53 183.51V182.39C411.53 174.1 406.31 169.56 396.77 169.56C390.08 169.56 385.1 171.02 379.66 173.3L375.92 162.3C382.49 159.35 388.95 157.3 398.71 157.3C416.41 157.3 425.03 166.61 425.03 182.59V218.1H411.4ZM434.88 232.96L439.54 222.76C442.02 224.12 444.74 225.03 447.59 225.03C451.45 225.03 453.83 223.32 456.08 218.1L431.14 158.22H445.76L462.78 202.67L478.33 158.22H492.62L468.8 219.81C464.04 232.05 458.72 236.58 449.06 236.58C443.28 236.58 439.07 235.24 434.88 232.96ZM502.12 158.22H515.86V167.28C519.7 161.96 524.92 156.98 534.11 156.98C542.73 156.98 548.74 161.17 551.91 167.53C556.79 161.17 563.13 156.98 572.22 156.98C585.25 156.98 593.2 165.25 593.2 179.89V218.1H579.48V184.07C579.48 174.54 575.05 169.43 567.35 169.43C559.87 169.43 554.52 174.65 554.52 184.29V218.09H540.8V183.94C540.8 174.65 536.27 169.42 528.67 169.42C521.07 169.42 515.86 175.09 515.86 184.4V218.08H502.12V158.22ZM646.4 183.97C645.48 175.11 640.28 168.2 631.2 168.2C622.82 168.2 616.91 174.66 615.67 183.97H646.4ZM602.04 188.38V188.16C602.04 171.05 614.17 156.98 631.31 156.98C650.36 156.98 660.01 171.94 660.01 189.17C660.01 190.43 659.89 191.67 659.77 193.04H615.78C617.24 202.8 624.17 208.24 633.01 208.24C639.7 208.24 644.46 205.74 649.23 201.09L657.27 208.24C651.6 215.03 643.78 219.46 632.76 219.46C615.44 219.47 602.04 206.88 602.04 188.38ZM669.3 158.22H683.02V167.53C686.88 161.84 692.43 156.98 701.74 156.98C715.24 156.98 723.06 166.04 723.06 179.99V218.1H709.34V184.07C709.34 174.78 704.69 169.43 696.51 169.43C688.56 169.43 683.02 175 683.02 184.29V218.09H669.3V158.22ZM740.18 201.53V170.01H732.58V158.22H740.18V141.78H753.9V158.22H770.02V170.01H753.9V199.38C753.9 204.73 756.62 206.88 761.28 206.88C764.23 206.88 767.15 206.19 769.78 204.82V216.06C766.38 218 762.52 219.11 757.42 219.11C747.34 219.12 740.18 214.71 740.18 201.53ZM184.97 152.83H152.83V110.25H184.97C203.63 110.25 218.81 95.07 218.81 76.41C218.81 57.75 203.63 42.57 184.97 42.57H152.83V0H184.97C227.11 0 261.37 34.27 261.37 76.41C261.37 118.54 227.11 152.83 184.97 152.83Z" fill="black"/>
</svg>
