<svg xmlns="http://www.w3.org/2000/svg" xmlns:xlink="http://www.w3.org/1999/xlink" id="Layer_1" x="0" y="0" version="1.1" viewBox="0 0 960 720" xml:space="preserve" style="enable-background:new 0 0 960 720"><style type="text/css">.st0{fill:#fff}.st43{fill:#c5f3f9}.st45{stroke:#276389}.st45,.st46,.st47{fill:none;stroke-width:3;stroke-miterlimit:10}.st46{stroke:#a5201e}.st47{opacity:0;stroke:#fff}.st48{fill:#156b96}.st49{fill:#0d516b}.st50{fill:#14435b}.st51{fill:#194860}.st52{fill:#276389}.st53{fill:#262a41}.st54{fill:#e8a398}.st55{fill:#91d5e3}.st56{fill:#c3d3ea}.st57{opacity:.5;fill:#e8a398}.st58,.st60{fill:none;stroke:#262a41;stroke-width:1.1752;stroke-miterlimit:10}.st60{stroke:#fff;stroke-width:2.1435;stroke-linecap:round}.st61{fill:#a5201e}.st62,.st63{opacity:.5;fill:#8391fc}.st63{fill:#a5201e}.st64{fill:#52b4c1}.st65,.st66{fill:none;stroke:#fff;stroke-width:.6666;stroke-miterlimit:10}.st66{stroke:#a5201e;stroke-width:3;stroke-linecap:round}</style><g><g><path d="M913.69,599.09c-3.33,14.65-5.59,29.33-5.35,44.13c0.17,10.87,1.48,24.79,3.95,39.99H34.39 c-16.84-50.24-8.37-108.16,27.47-149.34c21.62-24.79,48.05-45.15,60.94-76.19c13.96-33.71,13.84-72.46,15.39-108.33 c0-0.12,0.02-0.26,0.02-0.4c3.33-76.14,8.44-157.85,92.94-185.42c7.59-3.09,15.46-5.59,23.65-7.4c16.44-3.62,34.09-4.57,53-2.31 c37.06,4.47,70.74,22.91,105.4,36.8c34.66,13.94,74.12,23.41,108.87,9.71c28.38-11.18,48.69-35.85,71.24-56.45 c31.8-29.07,71.48-51.59,114.49-54.73c67.08-4.83,120.7,42.25,124.12,108.95c1.19,22.91-1.43,45.84-0.59,68.75 c2.71,78.12,80.95,114.68,103.05,184.4C949.68,499.46,925.13,548.89,913.69,599.09z" class="st43"/></g><linearGradient id="SVGID_1_" x1="680.952" x2="522.751" y1="515.068" y2="515.068" gradientUnits="userSpaceOnUse"><stop offset="0" style="stop-color:#49bcd6"/><stop offset=".036" style="stop-color:#45b3cf"/><stop offset=".171" style="stop-color:#3694b8"/><stop offset=".302" style="stop-color:#2b7ea7"/><stop offset=".428" style="stop-color:#25719d"/><stop offset=".542" style="stop-color:#236c9a"/></linearGradient><path style="opacity:.3;fill:url(#SVGID_1_)" d="M158.87,607.98c0,26.14,3.85,51.4,11.01,75.22h500.06 c7.16-23.81,11.01-49.07,11.01-75.22c0-144.18-116.87-261.04-261.04-261.04C275.73,346.94,158.87,463.81,158.87,607.98z"/><path d="M424.48,171.76v24.53c0,3.96,3.21,7.17,7.17,7.17h11.16c2.12,8.33,5.51,16.14,9.98,23.21c0,0,0,0,0,0 l-7.62,7.62c-2.8,2.8-2.8,7.34,0,10.14l17.35,17.35c2.8,2.8,7.34,2.8,10.14,0l7.92-7.92c0,0,0.01,0,0.01,0.01 c7.16,4.28,15.05,7.49,23.43,9.38c0,0,0.01,0,0.01,0v10.77c0,3.96,3.21,7.17,7.17,7.17h24.53c3.96,0,7.17-3.21,7.17-7.17v-11.18 c0,0,0.01,0,0.01,0c8.33-2.12,16.14-5.51,23.21-9.95c0,0,0,0,0,0l7.61,7.61c2.8,2.8,7.34,2.8,10.14,0l17.35-17.35 c2.8-2.8,2.8-7.34,0-10.14l-7.93-7.93c4.28-7.18,7.51-15.07,9.38-23.44h10.79c3.96,0,7.17-3.21,7.17-7.17v-24.53 c0-3.96-3.21-7.17-7.17-7.17h-11.2c-2.12-8.33-5.48-16.14-9.95-23.21l7.63-7.63c2.8-2.8,2.8-7.34,0-10.14l-17.35-17.35 c-2.8-2.8-7.34-2.8-10.14,0l-7.91,7.91l0,0c-7.19-4.26-15.08-7.48-23.46-9.38V92.21c0-3.96-3.21-7.17-7.17-7.17H509.4 c-3.96,0-7.17,3.21-7.17,7.17v11.18c-8.32,2.12-16.16,5.5-23.23,9.95l-7.61-7.61c-2.8-2.8-7.34-2.8-10.14,0l-17.35,17.35 c-2.8,2.8-2.8,7.34,0,10.14l7.92,7.92c-4.28,7.18-7.51,15.07-9.41,23.45h-10.76C427.69,164.59,424.48,167.8,424.48,171.76z M476.99,180.32c1.36-22.73,19.81-41.26,42.53-42.74c26.58-1.73,48.7,19.31,48.7,45.54c0,25.22-20.45,45.64-45.64,45.64 C496.42,228.77,475.41,206.81,476.99,180.32z" class="st45"/><path d="M722.7,543.8v13.45c0,2.17,1.76,3.93,3.93,3.93h6.12c1.16,4.57,3.02,8.85,5.47,12.73c0,0,0,0,0,0l-4.18,4.18 c-1.54,1.54-1.54,4.02,0,5.56l9.51,9.51c1.54,1.54,4.02,1.54,5.56,0l4.34-4.34c0,0,0,0,0.01,0c3.93,2.35,8.25,4.1,12.85,5.14 c0,0,0,0,0,0v5.91c0,2.17,1.76,3.93,3.93,3.93h13.45c2.17,0,3.93-1.76,3.93-3.93v-6.13c0,0,0,0,0,0c4.56-1.16,8.85-3.02,12.73-5.46 c0,0,0,0,0,0l4.17,4.17c1.54,1.54,4.02,1.54,5.56,0l9.51-9.51c1.54-1.54,1.54-4.02,0-5.56l-4.35-4.35 c2.35-3.94,4.12-8.26,5.14-12.85h5.92c2.17,0,3.93-1.76,3.93-3.93v-13.45c0-2.17-1.76-3.93-3.93-3.93h-6.14 c-1.16-4.56-3-8.85-5.46-12.73l4.18-4.18c1.54-1.54,1.54-4.02,0-5.56l-9.51-9.51c-1.54-1.54-4.02-1.54-5.56,0l-4.34,4.34l0,0 c-3.94-2.33-8.27-4.1-12.86-5.14v-5.91c0-2.17-1.76-3.93-3.93-3.93h-13.45c-2.17,0-3.93,1.76-3.93,3.93v6.13 c-4.56,1.16-8.86,3.02-12.74,5.46l-4.17-4.17c-1.54-1.54-4.02-1.54-5.56,0l-9.51,9.51c-1.54,1.54-1.54,4.02,0,5.56l4.34,4.34 c-2.35,3.94-4.12,8.26-5.16,12.86h-5.9C724.46,539.87,722.7,541.63,722.7,543.8z M751.49,548.5c0.74-12.46,10.86-22.62,23.32-23.43 c14.57-0.95,26.7,10.59,26.7,24.97c0,13.83-11.21,25.03-25.03,25.03C762.15,575.06,750.62,563.02,751.49,548.5z" class="st46"/><path d="M504.4,436.09v7.61c0,1.23,1,2.22,2.22,2.22h3.46c0.66,2.58,1.71,5,3.09,7.2c0,0,0,0,0,0l-2.36,2.36 c-0.87,0.87-0.87,2.28,0,3.14l5.38,5.38c0.87,0.87,2.28,0.87,3.14,0l2.46-2.46c0,0,0,0,0,0c2.22,1.33,4.67,2.32,7.27,2.91 c0,0,0,0,0,0v3.34c0,1.23,1,2.22,2.22,2.22h7.61c1.23,0,2.22-1,2.22-2.22v-3.47c0,0,0,0,0,0c2.58-0.66,5-1.71,7.2-3.09c0,0,0,0,0,0 l2.36,2.36c0.87,0.87,2.28,0.87,3.14,0l5.38-5.38c0.87-0.87,0.87-2.28,0-3.14l-2.46-2.46c1.33-2.23,2.33-4.67,2.91-7.27H563 c1.23,0,2.22-1,2.22-2.22v-7.61c0-1.23-1-2.22-2.22-2.22h-3.47c-0.66-2.58-1.7-5-3.09-7.2l2.37-2.37c0.87-0.87,0.87-2.28,0-3.14 l-5.38-5.38c-0.87-0.87-2.28-0.87-3.14,0l-2.45,2.45l0,0c-2.23-1.32-4.68-2.32-7.27-2.91v-3.34c0-1.23-1-2.22-2.22-2.22h-7.61 c-1.23,0-2.22,1-2.22,2.22v3.47c-2.58,0.66-5.01,1.71-7.2,3.09l-2.36-2.36c-0.87-0.87-2.28-0.87-3.14,0l-5.38,5.38 c-0.87,0.87-0.87,2.28,0,3.14l2.46,2.46c-1.33,2.23-2.33,4.67-2.92,7.27h-3.34C505.39,433.87,504.4,434.87,504.4,436.09z M520.68,438.75c0.42-7.05,6.14-12.79,13.19-13.25c8.24-0.54,15.1,5.99,15.1,14.12c0,7.82-6.34,14.15-14.15,14.15 C526.7,453.77,520.19,446.96,520.68,438.75z" class="st47"/><g><rect width="960" height="13.43" x="0" y="680.51" class="st48" transform="matrix(-1 -4.490065e-11 4.490065e-11 -1 960 1374.459)"/><rect width="918.57" height="26.05" x="22.76" y="693.95" class="st49" transform="matrix(-1 -4.490021e-11 4.490021e-11 -1 964.0781 1413.9459)"/><rect width="269.77" height="26.05" x="22.76" y="693.95" class="st50" transform="matrix(-1 -4.490642e-11 4.490642e-11 -1 315.2835 1413.9459)"/><rect width="309.52" height="13.43" x="0" y="680.51" class="st51" transform="matrix(-1 -4.489221e-11 4.489221e-11 -1 309.525 1374.459)"/></g><g><g><path d="M396.74,252.98c0,0,3.54-1.73,15.93,1.08c9.17,2.08-12.03,10.2-12.24,9.88 C400.21,263.62,396.74,252.98,396.74,252.98z" class="st52"/><path d="M399.13,257.49c0,0-56.09-5.58-74.68,30.22c-18.6,35.8-13.48,106.93-37.66,131.57 c-24.17,24.64-97.16,104.6-28.36,139c68.8,34.4,73.92-8.37,79.5-31.15c5.58-22.78-1.39-43.7,9.76-54.86 c11.16-11.16,26.96-23.24,20.92-55.79s40.45-31.61,40.45-31.61l10.23,121.34l59.76,11c0,0-6.06-44.7-5.36-88.87 c0.7-44.17,19.53-90.42,1.39-131.8C456.95,255.17,424.59,247.93,399.13,257.49z" class="st53"/><path d="M470.86,502.92c23.47,9.67,21.24,147.3,3.8,143.59C446.65,653.82,430.06,494.99,470.86,502.92z" class="st54"/><path d="M493.66,589.56c0,0,4.57,50.01,5.11,50.82c2.17,3.26,48.4,4.03,48.4,4.03l11.02,32.26 c0,0-84.96,9.68-96.79-11.29c-11.83-20.97-17.48-77.7-17.48-77.7L493.66,589.56z" class="st54"/><g><path d="M433.07,438.42l26.75,146.84l1.31,8.86l20.34-1.77l16.77-1.46c0,0-7.23-79.82-16.54-104.44 C471.62,459.83,433.07,438.42,433.07,438.42z" class="st55"/></g><path d="M459.82,585.27l1.31,8.86l20.34-1.77c1.03-7.26,2.57-21.05,2.43-37.34c-0.2-24.2-6.23-43.77-6.23-43.77 L459.82,585.27z" class="st56"/><path d="M349.48,431.02c0,0,53.64,67.74,54.44,66.53c0.82-1.21,37.91-22.98,37.52-26.2 c-0.37-2.94-14.49-30.79-20.06-38.48c-0.55-0.78-1.03-1.35-1.39-1.67c-3.29-2.99-7.14-8.56-7.74-14.61 c-0.14-1.3-0.11-2.62,0.09-3.95l-8.6-3.58l-36.4-15.18l-0.27-0.11c0,0-2.37,22.51-5.07,27.16 C359.8,424.7,349.48,431.02,349.48,431.02z" class="st54"/><path d="M367.28,394.34c9.22,14.61,43.69,33.76,54.09,38.53c-0.55-0.78-1.03-1.35-1.39-1.67 c-3.29-2.99-7.14-8.56-7.74-14.61l-8.51-7.53l-30.52-27.07c0,0-1.92-0.25-4.45-0.27l-1.44,12.17L367.28,394.34z" class="st57"/><path d="M479.53,680.45c-7.4-10.54-16.71-28.05-14.36-46.79c3.77-30.11,11.82-58.61,13.97-81.73 c3.4-36.34-5.2-76.64-32.32-102.69c-3.17-3.04-6.69-5.64-10.09-8.4c-6.05-4.88-16.07-8.7-16.71-9.54 c0.23,0.75-0.57,6.89-1.76,13.56c-1.53,8.49-3.72,17.83-5.34,17.73c-2.78-0.16-7.67-2.33-13.47-5.52 c-18.01-9.97-44.78-29.9-44.78-29.9s-51.63,10.5-53.25,59.69c-1.62,49.19,7.24,86.6,3.47,115.08 c-3.08,23.58-11.39,58.61-24.24,78.52H479.53z" class="st55"/><path d="M397.2,458.78c0,0,13.98,9.88,20.37,22.36c0.77,1.51,1.44,3.06,1.95,4.64c-0.27-1.16-4.43-19.4,3.88-36.45 c3.36-6.89,0.09-6.94-5.14-4.47c-1.53,8.49-3.72,17.83-5.34,17.73c-2.78-0.16-7.67-2.33-13.47-5.52 C398.05,458.11,397.2,458.78,397.2,458.78z" class="st56"/><path d="M342.29,496.53c0,0,0.95,103.42,7.53,113.73c11.83,18.55,132.82,63.18,132.82,63.18l-125.29-3.23 c0,0-60.76-37.1-60.76-38.72S342.29,496.53,342.29,496.53z" class="st56"/><g><path d="M399.96,680.46h148.67v-9.26H404.54c-2.53,0-4.58,2.05-4.58,4.58V680.46z" class="st53"/><path d="M666.91,680.46H476.15l18.3-117.26c0.53-3.4,3.46-5.9,6.9-5.9h176.64c4.28,0,7.56,3.82,6.9,8.05 L666.91,680.46z" class="st53"/></g><path d="M311.15,502.92c23.47,9.67,21.24,147.3,3.8,143.59C286.94,653.82,270.35,494.99,311.15,502.92z" class="st54"/><path d="M337.32,592.92c0,0,0,22.99,1.21,24.6c1.21,1.61,90.07,36.84,90.07,36.84l-6.18,29.04 c0,0-50.26-5.85-76.09-13.44c-27.42-8.07-53.17-13.11-59.42-29.04s-8.27-49-8.27-49L337.32,592.92z" class="st54"/><path d="M342.29,496.53l-2.42,98l-63.86,0.81c0,0-8.87-88.32,0.81-120.18c9.68-31.86,77.84-47.99,77.84-47.99 L342.29,496.53z" class="st55"/><path d="M361.03,417.43c0,0-16.71,11.53-13.6,17.53c5.68,10.95,34.82,28.3,52.61,33.11 c7.21,1.95,12.57-5.48,12.57-5.48L361.03,417.43z" class="st0"/><path d="M418.25,425.05c0,0,13.08,8.26,10.36,15.57c-2.95,7.95-5.65,19.54-8.59,23.58 c-2.94,4.03-8.06-1.29-8.06-1.29L418.25,425.05z" class="st0"/><g><g><g><path d="M299.26,641.57c-0.37,5.24,2.45,10.25,6.77,13.24c33.74,23.42,190.47,39.33,187,27.93 C493.97,674.32,302.08,602.17,299.26,641.57z" class="st54"/></g></g><path d="M540.55,682.39c-0.38-0.74-16.77-23.9-31.12-24.03s-32.41,9.88-35,10.29s-8.63,0.83-8.63,0.83l-1.53,17.23 c0,0,10.99-1.86,12.82-0.29c1.84,1.57,2.89,4.06,8.72,3.14c5.83-0.92,10.93-7.29,18.05-8.41c7.12-1.12,13.61,6.35,19.95,5.35 C530.16,685.48,540.55,682.39,540.55,682.39z" class="st54"/></g><g><g><path d="M367.61,395.78c0,0,7.23,8.52,29.63,19.44c10.51,5.13,22.42,12.07,34.57,9.68 c10.73-2.11,16.39-12.78,20.96-21.62c4.46-8.62,7.86-19,9.43-28.55c1.82-11.03,3.2-48.57-1.66-56.14 c-6.29-9.81-55.35-22.03-55.35-22.03l-28.88,15.92l-21.84,14.44L367.61,395.78z" class="st54"/></g></g><path d="M362.29,418.61c9.13-10.31,6.65-38.02,14.29-55.21c2.32-5.21,6.81-1.83,7.95-4.08 c3.87-7.63,6.44-32.87,6.44-32.87s17.4,3.65,40.6,3.22c11.19-0.21,39.71-11,39.71-11l-17.75-19.76l-52.09-27.42 c0,0-70.51,60.5-68.09,63.72s12.1,69.37,12.1,69.37L362.29,418.61z" class="st53"/></g><g><path d="M364.34,343.9l9.13-0.31c-0.68-19.96,2.09-77.7,25.83-86.2l-2.4-4.51 C362.04,265.35,364.23,340.7,364.34,343.9z" class="st52"/></g><g><path d="M366.53,376.28c0,0,18.95,28.85,58.37,33.21" class="st58"/><ellipse cx="427.61" cy="409.69" class="st53" rx="8.19" ry="5.59"/><ellipse cx="369.51" cy="361.13" class="st0" rx="20.94" ry="22.86"/><ellipse cx="364.14" cy="361.13" class="st50" rx="20.94" ry="22.86"/><ellipse cx="359.07" cy="361.3" class="st52" rx="13.69" ry="15.65"/></g></g><g><circle cx="720.51" cy="315.75" r="128.47" class="st52"/><path d="M620.64,365.56c-0.69,2.08-13.18,67.27-13.18,67.27l66.57-15.95L620.64,365.56z" class="st52"/><g><g><path d="M785,285.81c0,0.49-0.01,1.04-0.03,1.53c-0.58,9.04-4,17.19-6.93,23.29 c-7.89,16.32-19.06,30.58-33.23,42.45c-11.79,9.78-22.78,16.36-34.58,20.73c-7.51,2.82-13.46,3.87-19.27,3.38 c-4.28-0.37-7.98-2.1-11.01-5.11l-9.46-9.46c-0.03-0.05-0.06-0.07-0.1-0.11c-2.08-2.21-3.17-4.72-3.17-7.24 c0-2.59,1.12-5.06,3.24-7.19l0.02-0.02c1.57-1.67,3.16-3.24,5.08-5.11c0.43-0.42,0.86-0.83,1.31-1.25 c0.45-0.48,0.93-0.92,1.38-1.37l7.53-7.53c4.65-4.65,10.21-4.65,14.87,0l0.76,0.74c0.55,0.55,1.1,1.09,1.63,1.65 c2.56,2.5,4.71,4.67,6.85,7.05c0.02,0.02,0.04,0.03,0.05,0.05c0.66,0.65,0.88,0.65,1.82,0.35l0.04-0.01 c4.24-1.76,8.37-4.31,13.35-8.2c0.02-0.03,0.04-0.05,0.07-0.08c9.09-7.35,16.1-15.07,21.46-23.56c0.63-0.98,1.16-2.06,1.64-3.02 c0.52-1.06,1.05-2.08,1.6-3.01c0.04-0.06,0.08-0.11,0.11-0.18c0.19-0.41,0.19-0.59,0.19-0.67c0-0.42-0.31-0.77-0.61-1.09 l-9.49-9.48c-2.21-2.21-3.38-4.74-3.38-7.33c0-2.61,1.21-5.15,3.39-7.19l15.27-15.26c4.5-4.56,10.19-4.62,14.87-0.14 c1.03,0.95,1.93,1.89,2.9,2.89l0.61,0.62c1.62,1.71,3.34,3.47,5.24,5.08c0.07,0.05,0.12,0.09,0.17,0.14 C783.1,275.79,785,280.27,785,285.81z" class="st0"/></g><g><path d="M729.58,266.24c-2.79-0.53-5.67-0.81-8.6-0.81c-26.08,0-47.23,21.96-47.23,49.06 c0,3.06,0.27,6.05,0.79,8.95" class="st60"/><path d="M738.48,256.99c-5.53-1.81-11.41-2.78-17.5-2.78c-32.05,0-58.03,27-58.03,60.28 c0,6.35,0.94,12.46,2.69,18.2" class="st60"/></g></g></g><g><path d="M100.97,365.98v76.14c0,0.05,0,0.12,0.01,0.17c0.04,1.32,0.6,2.51,1.51,3.35c0.86,0.82,2.03,1.32,3.31,1.32 h124.92c1.28,0,2.46-0.5,3.31-1.32c0.91-0.84,1.48-2.05,1.51-3.36c0.01-0.05,0.01-0.1,0.01-0.15v-76.14 c0-3.08-2.51-5.59-5.59-5.59H106.55C103.47,360.39,100.97,362.9,100.97,365.98z" class="st61"/><path d="M100.98,442.29c0.04,1.32,0.6,2.51,1.51,3.35c0.86,0.82,2.03,1.32,3.31,1.32h124.92 c1.28,0,2.46-0.5,3.31-1.32c0.91-0.84,1.48-2.05,1.51-3.36l-67.22-58.37L100.98,442.29z" class="st62"/><path d="M100.97,365.98v8.35l67.37,54.78l67.22-54.75v-8.38c0-3.09-2.5-5.59-5.59-5.59H106.55 C103.47,360.39,100.97,362.9,100.97,365.98z" class="st63"/></g><g><g><path d="M176.69,586.06l-4.5-0.59l4.15,2.51c-2.43,11.7-9.44,19.71-9.98,20.3c-0.03,0.03-0.03,0.03-0.03,0.03 c-1.67,1.83-8.03-2.43-9.22-3.5c-4.66-4.18-6.82-10.3-8.84-16.04c-2.48-7.01-4.83-14.07-7.79-20.89 c-2.37-5.45-5.01-10.78-7.6-16.12l2.24-6.63l-5.61-0.57c-0.54-1.19-1.05-2.37-1.56-3.56c-2.29-5.34-4.48-10.7-6.5-16.15 c1,0.35,27.18,10.19,43.03,26.58l-2.08,3.34l6.04,1.19c1.99,2.51,3.69,5.18,5.01,7.95C177.25,571.91,177.74,579.51,176.69,586.06 z" class="st64"/><path d="M231.52,570.96c-0.54,0.65-1.02,1.32-1.54,2c-4.88,6.87-10.25,13.37-16.01,19.47l-2.86-1.89 c0,0,0.97,1.91,1.56,3.21c-5.04,5.26-10.41,10.24-16.04,14.91c-1.54,1.27-3.32,2.59-5.26,3.42l-2.35-2.51 c0,0,0.05,1.81,0.05,3.24c-0.86,0.16-1.73,0.22-2.62,0.08c-1.19-0.16-5.45-1-6.04-2.16l-0.03-0.03c0,0-5.69-12.81,5.2-24.24 c1.13-1.19,2.4-2.21,3.75-3.13l1.83,2.37l3.07-5.18c2.91-1.38,5.99-2.45,8.9-3.4c6.55-2.16,13.35-3.69,20.14-4.88 C226.02,571.77,228.77,571.37,231.52,570.96z" class="st64"/><path d="M151.99,619.46l-0.03,0.03c-7.41,3.18-16.1,0.35-23.94-4.34c1.02-2.13,3.1-6.34,3.29-6.61 c0.19-0.27-3.83,2.94-6.15,4.8c-11.24-7.47-20.17-17.87-20.17-17.87s29.68-1.89,40.71,3.83c1.08,0.57,2.02,1.21,2.83,1.91 l-0.97,2.26l2.48-0.65C155.28,609.49,151.99,619.46,151.99,619.46z" class="st64"/><g><path d="M165.58,641.18c0,0,10.27-63.87-27.15-99.87" class="st65"/><path d="M167,650.27c0,0,3.63-50.12,45.63-67.09" class="st65"/><path d="M164.99,637.72c0,0-16.72-31.7-42.34-37.54" class="st65"/></g><path d="M192.86,635.55l-12.6,45.47h-26.32l-12.51-45.17c-0.02-0.07-0.05-0.11-0.05-0.16l-0.05-0.14H192.86z" class="st52"/></g><path d="M176.04,681.01h-22.09l-12.51-45.17C142.65,639.59,155.68,678.48,176.04,681.01z" class="st50"/></g><g><circle cx="230.5" cy="278.65" r="36.09" class="st66"/><polyline points="244.04 283.98 230.5 278.65 230.5 253.02" class="st66"/></g><g><path d="M522.49,154.32c10.75,0,18.25,6.08,18.25,16.75c0,10.67-7.67,15.88-18.18,15.88l-0.32,6.08h-9.72 l-0.39-13.43h3.56c8.22,0,14.38-1.5,14.3-8.61c0-4.58-2.84-7.43-7.51-7.43c-4.82,0-7.67,2.77-7.67,7.43h-10.43 C504.23,161.43,510.95,154.32,522.49,154.32z M517.35,211.93c-4.03,0-6.87-2.84-6.87-6.48c0-3.64,2.84-6.48,6.87-6.48 c3.87,0,6.72,2.84,6.72,6.48C524.07,209.08,521.22,211.93,517.35,211.93z" class="st52"/></g><g><path d="M383.56,189.2c0.29,0.87,5.53,28.21,5.53,28.21l-27.92-6.69L383.56,189.2z" class="st52"/><g><ellipse cx="324.38" cy="167.32" class="st52" rx="70.04" ry="53.88"/><g><circle cx="294.04" cy="167.32" r="8.61" class="st0"/><circle cx="324.38" cy="167.32" r="8.61" class="st0"/><circle cx="354.73" cy="167.32" r="8.61" class="st0"/></g></g></g></g></svg>