<svg width="652" height="292" viewBox="0 0 652 292" fill="none" xmlns="http://www.w3.org/2000/svg">
<path d="M279.889 63.7893C273.967 45.0237 262.543 29.5962 246 17.9726C244.063 16.4004 223.378 0 184.485 0C133.633 0 86.6467 29.0291 60.2428 46.6882C38.8755 60.9768 -3.77615 95.7184 0.268556 134.615C2.10413 152.256 13.2559 167.171 39.2029 167.554C60.4227 167.867 85.3595 155.372 99.4814 146.091C121.633 131.53 153.959 107.817 185.629 96.4884C201.217 90.9142 209.265 93.1921 211.802 93.8098C219.799 95.631 225.684 100.159 229.194 107.31C235.337 119.755 233.939 139.382 225.684 157.369C214.417 181.889 195.042 206.058 168.053 229.259C154.355 241.04 141.621 250.169 130.308 256.374L129.289 256.919C124.036 259.846 112.017 266.136 106.077 267.662C88.1684 272.268 89.4738 263.872 91.9178 258.007C93.3522 254.563 98.0981 248.578 103.891 242.505C107.054 239.292 110.325 236.304 113.631 233.113C124.603 222.532 136.714 213.578 135.93 201.655C135.142 189.634 123.648 181.833 111.639 181.856C99.6293 181.879 80.7614 190.063 63.5819 215.344C56.175 226.248 41.8548 255.024 56.3273 277.741C62.1384 286.828 71.773 291.421 84.9953 291.384C94.2423 291.384 105.288 289.42 117.469 284.583C153.742 270.179 191.869 242.224 212.72 223.611C245.599 194.259 265.629 165.991 276.937 131.157C281.503 117.043 287.983 89.5447 279.889 63.7893Z" fill="#D40000"/>
<path d="M422.381 76.9434C415.279 76.9434 409.482 82.6559 409.482 89.6688C409.482 96.8107 415.076 102.418 422.202 102.418C429.332 102.418 434.917 96.834 434.917 89.7562C435.013 86.3951 433.782 83.2001 431.435 80.77C429.083 78.3129 425.868 76.9434 422.381 76.9434Z" fill="#D40000"/>
<path d="M412.177 188.427H432.18V108.786L412.177 112.05V188.427Z" fill="#D40000"/>
<path d="M368.597 107.369C359.036 107.369 350.448 110.071 341.626 114.461L339.366 115.618L344.743 127.606L347.774 126.172C354.023 123.378 360.678 121.506 366.669 121.751C373.919 122.046 376.894 125.375 376.894 132.313V136.385H365.022C345.979 136.385 334.113 146.483 333.79 162.15C333.79 177.056 346.201 189.878 363.482 189.878C377.424 189.878 389.221 185.36 397.186 177.383V134.872C397.191 114.166 382.405 107.369 368.597 107.369ZM376.857 173.4C374.896 174.783 370.861 175.973 366.475 175.973C358.432 175.973 354.811 169.808 354.945 162.615C355.084 156.677 358.791 149.913 368.836 149.913H376.857V173.4Z" fill="#D40000"/>
<path d="M579.386 175.835C573.907 175.835 570.185 174.037 567.773 171.418C564.176 167.522 562.571 159.55 563.009 151.048H606.127V149.056C605.757 120.83 596.132 107.98 575.056 107.98C551.539 107.98 542.384 129.613 542.209 149.932C542.057 162.773 546.899 175.734 555.796 183.093C561.187 187.588 568.668 190.064 577.348 190.064C582.093 190.064 587.019 189.381 591.529 187.966C600.191 185.296 606.574 180.658 606.574 180.658L600.934 169.053C599.914 169.827 591.276 175.835 579.386 175.835ZM575.056 122.877C583.947 122.877 585.253 132.522 585.253 138.525H563.604C563.95 130.807 567.155 122.877 575.056 122.877Z" fill="#D40000"/>
<path d="M448.19 123.056L448.167 188.491H468.571V126.892C471.246 124.305 476.881 122.023 482.245 121.815C487.217 121.613 490.436 122.654 490.436 122.654L496.072 109.998C493.886 108.905 488.66 107.582 482.605 107.582C473.828 107.577 460.343 110.141 448.19 123.056Z" fill="#D40000"/>
<path d="M648.533 175.886C640.214 175.25 638.484 171.598 638.484 165.517V86.7195L618.426 90.136V164.212C618.426 181.774 627.96 189.294 643.917 189.294C647.33 189.294 651.568 188.492 651.568 188.492V175.923C651.568 175.923 649.691 175.983 648.533 175.886Z" fill="#D40000"/>
<path d="M521.972 86.8291L501.468 90.1217V164.562C501.468 181.23 511.212 189.118 527.544 189.118C531.473 189.118 535.172 188.385 535.172 188.385V176.001C534.946 175.982 533.428 175.982 532.28 175.931C523.665 175.646 521.977 170.896 521.977 165.41V123.526H535.172V108.823H521.977L521.972 86.8291Z" fill="#D40000"/>
</svg>
