<svg xmlns="http://www.w3.org/2000/svg" width="500" height="500" fill="none" viewBox="0 0 500 500"><rect width="500" height="500" fill="#fff" rx="250"/><path fill="#000" d="M361.875 236.288C361.194 238.66 360.437 241.01 359.612 243.315C358.745 245.742 357.813 248.125 356.792 250.474L322.632 249.761C322.632 250.452 322.632 251.133 322.61 251.825L415.458 253.768C415.579 248.29 415.435 242.822 415.008 237.397L361.864 236.288H361.875Z"/><path fill="#000" d="M290.199 89.4709L289.266 91.7878C294.415 93.7203 299.4 96.0151 304.199 98.6174L271.159 180.518C273.169 181.133 275.178 181.847 277.166 182.648C277.264 182.692 277.363 182.725 277.451 182.769L312.181 96.6629C312.082 96.619 311.984 96.5861 311.896 96.5421C304.737 93.6544 297.49 91.3046 290.199 89.4709Z"/><path fill="#000" d="M323.414 111.64C327.554 115.077 331.463 118.788 335.108 122.752L287.97 188.084C289.617 189.094 291.22 190.159 292.758 191.279L347.1 115.977C341.268 111.761 335.108 107.885 328.641 104.404L323.414 111.651V111.64Z"/><path fill="#000" d="M348.361 140.121C351.171 144.601 353.685 149.278 355.893 154.132L302.332 199.623C303.452 200.786 304.528 201.983 305.571 203.224L376.349 143.108C371.967 137.925 367.256 132.995 362.228 128.35L348.372 140.121H348.361Z"/><path fill="#000" d="M388.79 159.886L362.578 172.953C363.895 177.97 364.896 183.12 365.556 188.38L313.312 214.425C313.948 215.566 314.563 216.72 315.134 217.883L398.22 176.466C395.4 170.768 392.247 165.234 388.777 159.886H388.79Z"/><path fill="#000" d="M366.469 206.034C366.359 211.238 365.908 216.377 365.138 221.406L320.23 231.486C320.483 232.452 320.724 233.418 320.933 234.395L411.531 214.06C410.234 208.285 408.642 202.586 406.744 196.986L366.469 206.023V206.034Z"/><path fill="#000" d="M413.013 278.583L351.096 261.937C348.768 266.032 346.209 269.996 343.431 273.773L320.461 267.603C320.329 268.118 320.197 268.624 320.055 269.14L409.718 293.241C411.046 288.366 412.133 283.48 413.002 278.572L413.013 278.583Z"/><path fill="#000" d="M336.438 282.433C333.605 285.628 330.597 288.67 327.434 291.536L314.083 284.168C313.874 284.563 313.655 284.959 313.435 285.354L394.732 330.208C396.916 326.244 398.959 322.17 400.847 317.976L336.427 282.433H336.438Z"/><path fill="#000" d="M319.681 298.017C316.629 300.356 313.456 302.541 310.184 304.583L303.87 298.753C303.639 299.016 303.398 299.269 303.156 299.533L371.366 362.548C374.155 359.55 376.834 356.431 379.403 353.204L319.681 298.028V298.017Z"/><path fill="#000" d="M349.868 381.969L301.907 309.28C300.008 310.257 298.086 311.18 296.131 312.058C296.131 312.058 292.607 313.573 291.805 313.903L340.898 388.293C343.961 386.285 346.948 384.174 349.878 381.969H349.868Z"/><path fill="#000" d="M283.655 316.825C282.842 317.078 277.692 318.571 276.166 318.945C276.166 318.945 274.728 319.296 274.333 319.384L305.132 406.007C308.162 404.93 311.16 403.778 314.125 402.526L283.655 316.814V316.825Z"/><path fill="#000" d="M265.139 321.033C262.438 321.615 259.704 322.032 256.937 322.306L266.204 414.703C268.96 414.431 271.705 414.09 274.428 413.684L265.139 321.044V321.033Z"/><path fill="#000" d="M246.356 322.54C244.05 322.42 241.744 322.2 239.438 321.86L226.317 413.797C228.612 414.124 230.918 414.41 233.212 414.653L246.356 322.551V322.54Z"/><path fill="#000" d="M138.123 263.714C138.804 261.343 139.562 258.993 140.385 256.687C141.253 254.26 142.186 251.878 143.207 249.528L177.366 250.242C177.366 249.55 177.366 248.869 177.388 248.178L84.5405 246.234C84.4197 251.713 84.5625 257.181 84.9907 262.605L138.134 263.714H138.123Z"/><path fill="#000" d="M209.81 410.528L210.743 408.211C205.593 406.28 200.609 403.984 195.81 401.383L228.849 319.481C226.84 318.866 224.831 318.153 222.843 317.351C222.744 317.307 222.646 317.274 222.558 317.23L187.828 403.337C187.926 403.381 188.025 403.413 188.113 403.457C195.272 406.346 202.519 408.695 209.81 410.528Z"/><path fill="#000" d="M176.593 388.358C172.453 384.922 168.544 381.209 164.898 377.247L212.036 311.914C210.389 310.904 208.786 309.839 207.249 308.719L152.908 384.022C158.739 388.238 164.898 392.114 171.366 395.594L176.593 388.348V388.358Z"/><path fill="#000" d="M151.639 359.879C148.828 355.398 146.314 350.721 144.107 345.868L197.668 300.377C196.548 299.213 195.472 298.017 194.429 296.776L123.651 356.891C128.032 362.073 132.742 367.004 137.771 371.65L151.628 359.879H151.639Z"/><path fill="#000" d="M111.22 340.11L137.429 327.043C136.112 322.025 135.112 316.876 134.454 311.616L186.697 285.571C186.06 284.429 185.445 283.277 184.874 282.113L101.777 323.53C104.599 329.228 107.75 334.762 111.22 340.11Z"/><path fill="#000" d="M133.531 293.965C133.641 288.76 134.091 283.621 134.86 278.592L179.769 268.513C179.516 267.546 179.274 266.58 179.066 265.603L88.4688 285.927C89.7644 291.702 91.3565 297.401 93.2561 303.001L133.542 293.965H133.531Z"/><path fill="#000" d="M86.9912 221.42L148.908 238.066C151.236 233.97 153.794 230.006 156.572 226.229L179.543 232.4C179.674 231.884 179.806 231.379 179.949 230.863L90.2743 206.75C88.9457 211.625 87.8587 216.512 86.9912 221.42Z"/><path fill="#000" d="M163.564 217.565C166.397 214.37 169.406 211.329 172.568 208.463L185.92 215.831C186.129 215.435 186.348 215.04 186.568 214.645L105.271 169.78C103.086 173.744 101.044 177.817 99.155 182.012L163.575 217.555L163.564 217.565Z"/><path fill="#000" d="M180.336 201.986C183.389 199.647 186.562 197.462 189.834 195.419L196.147 201.25C196.378 200.986 196.62 200.734 196.861 200.47L128.653 137.455C125.864 140.453 123.185 143.571 120.615 146.799L180.336 201.975V201.986Z"/><path fill="#000" d="M150.148 118.032L198.109 190.72C200.009 189.743 201.93 188.821 203.885 187.942C203.885 187.942 207.409 186.427 208.211 186.098L159.13 111.707C156.066 113.717 153.08 115.825 150.148 118.032Z"/><path fill="#000" d="M216.349 183.178C217.161 182.926 222.311 181.432 223.837 181.059C223.837 181.059 225.276 180.708 225.671 180.62L194.871 93.9976C191.841 95.0736 188.843 96.2265 185.879 97.4783L216.349 183.189V183.178Z"/><path fill="#000" d="M234.858 178.97C237.559 178.388 240.293 177.971 243.06 177.696L233.804 85.2983C231.048 85.5728 228.303 85.9132 225.58 86.3195L234.869 178.959L234.858 178.97Z"/><path fill="#000" d="M253.657 177.456C255.963 177.577 258.269 177.796 260.575 178.137L273.685 86.2C271.39 85.8706 269.084 85.5851 266.79 85.3435L253.646 177.445L253.657 177.456Z"/></svg>