<svg width="500" height="500" viewBox="0 0 500 500" fill="none" xmlns="http://www.w3.org/2000/svg">
<rect width="500" height="500" rx="250" fill="white"/>
<path d="M394.002 164.547C387.823 144.968 375.904 128.872 358.644 116.744C356.623 115.104 335.041 97.9927 294.462 97.9927C241.406 97.9927 192.383 128.28 164.835 146.705C142.541 161.613 98.0409 197.86 102.261 238.443C104.176 256.848 115.811 272.41 142.883 272.81C165.023 273.136 191.04 260.099 205.774 250.416C228.886 235.224 262.613 210.483 295.656 198.663C311.92 192.848 320.317 195.224 322.964 195.869C331.307 197.769 337.447 202.493 341.109 209.954C347.519 222.939 346.06 243.416 337.447 262.183C325.692 287.766 305.477 312.983 277.318 337.189C263.026 349.481 249.74 359.006 237.937 365.479L236.874 366.048C231.393 369.102 218.853 375.665 212.656 377.257C193.971 382.062 195.333 373.303 197.883 367.183C199.379 363.59 204.331 357.346 210.375 351.009C213.675 347.657 217.088 344.54 220.537 341.21C231.985 330.171 244.621 320.828 243.803 308.389C242.981 295.847 230.988 287.707 218.459 287.731C205.929 287.755 186.243 296.294 168.319 322.671C160.591 334.048 145.65 364.071 160.75 387.773C166.813 397.254 176.865 402.046 190.66 402.007C200.308 402.007 211.833 399.958 224.542 394.911C262.387 379.883 302.167 350.716 323.921 331.296C358.226 300.672 379.124 271.179 390.922 234.835C395.686 220.109 402.447 191.419 394.002 164.547Z" fill="#D40000"/>
</svg>
