<svg width="180" height="102" viewBox="0 0 180 102" fill="none" xmlns="http://www.w3.org/2000/svg">
<path d="M28.0548 0H179.693V74.9312L153.059 101.921H0V28.4099L28.0548 0Z" fill="#E70021"/>
<path d="M47.3897 77.1605C44.0322 77.1605 40.8756 76.5504 37.9199 75.3304C34.9642 74.1103 32.4006 72.4051 30.2292 70.2145C28.0579 68.0239 26.3341 65.4266 25.0578 62.4226C23.7815 59.4187 23.1433 56.1549 23.1433 52.6312V52.4947C23.1433 49.0621 23.7702 45.8437 25.0239 42.8397C26.2777 39.8358 28.0015 37.2158 30.1954 34.9797C32.3893 32.7437 34.9976 30.9932 38.0203 29.7283C41.043 28.4635 44.3458 27.8311 47.9288 27.831C50.3461 27.8311 52.54 28.0682 54.5105 28.5423C59.46 29.6796 63.6422 32.6971 67.2275 36.1914L58.7202 44.0748C54.4129 39.7565 48.7578 38.6633 43.2605 40.807C41.8503 41.3569 40.7191 42.3538 39.7339 43.4828C38.7487 44.6119 37.9762 45.9443 37.4167 47.4801C36.8571 49.0158 36.5773 50.6426 36.5773 52.3603V52.4947C36.5773 54.2566 36.8571 55.9167 37.4167 57.4752C37.9762 59.0337 38.7487 60.3779 39.7339 61.5076C40.7191 62.6374 41.8947 63.5297 43.2605 64.1845C44.6263 64.8393 46.1373 65.1667 47.7935 65.1667C49.0028 65.1667 50.111 65.0313 51.1182 64.7604C54.3785 63.7073 57.3527 61.9254 59.7037 59.4076L67.5637 67.9815C66.4431 69.5186 65.8718 69.4135 64.5511 70.7231C63.2304 72.0328 61.7303 73.1619 60.0509 74.1103C58.3715 75.0588 56.4908 75.8043 54.409 76.3468C52.3271 76.8893 49.9874 77.1605 47.3897 77.1605ZM92.2893 77.024C88.0805 77.024 84.0842 76.3692 80.3004 75.0595C76.5165 73.7498 73.6022 71.7847 70.6916 69.164L79.0278 60.6394C83.7286 64.4347 86.6461 66.1159 92.1093 66.1159C93.8557 66.1159 95.188 65.8333 96.1063 65.268C97.0246 64.7028 97.4837 63.9012 97.4838 62.8631V62.7266C97.4837 62.2303 97.3717 61.7902 97.1476 61.4063C96.9235 61.0224 96.5091 60.6494 95.9044 60.2875C95.2997 59.9256 94.4938 59.5755 93.4868 59.237C92.4796 58.8986 91.1698 58.5488 89.5574 58.1876C87.0499 57.6003 85.3707 56.9566 83.2212 56.2562C81.0717 55.5559 79.2023 54.6522 77.6131 53.5452C76.0239 52.4382 74.7701 51.0603 73.8518 49.4115C72.9336 47.7627 72.4744 45.719 72.4744 43.2802V43.1437C72.4744 40.9311 72.8888 38.8987 73.7176 37.0465C74.5464 35.1944 75.7554 33.5908 77.3446 32.2356C78.9338 30.8805 80.848 29.83 83.087 29.0841C92.2379 25.978 101.573 28.6905 108.101 34.3551L100.01 42.9338C97.0644 40.5524 94.0904 39.0154 90.342 38.8756C88.7747 38.8756 87.5991 39.1693 86.8154 39.7565C86.0317 40.3438 85.6399 41.0662 85.6399 41.9237V42.0602C85.6399 42.602 85.7629 43.0762 86.0089 43.4828C86.2548 43.8895 86.6802 44.2622 87.2849 44.6006C87.8895 44.939 88.7179 45.2778 89.7701 45.6169C90.8223 45.9561 92.1547 46.3062 93.7672 46.6674C96.4537 47.2547 98.8826 47.9436 101.054 48.7342C103.225 49.5249 105.072 50.4848 106.595 51.6138C108.118 52.7429 109.283 54.1094 110.088 55.7134C110.894 57.3174 111.296 59.2264 111.297 61.4404V61.5748C111.296 64.0149 110.838 66.1834 109.92 68.0804C109.002 69.9773 107.715 71.592 106.058 72.9244C104.402 74.2568 102.409 75.2732 100.08 75.9735C97.7518 76.6738 95.1548 77.024 92.2893 77.024Z" fill="white"/>
<path d="M136.133 77.1605C132.776 77.1605 129.619 76.5504 126.663 75.3304C123.708 74.1103 121.144 72.405 118.973 70.2144C116.801 68.0239 115.078 65.4266 113.801 62.4226C112.525 59.4187 111.887 56.1549 111.887 52.6312V52.4947C111.887 49.0621 112.514 45.8437 113.767 42.8397C115.021 39.8358 116.745 37.2158 118.939 34.9797C121.133 32.7436 123.741 30.9932 126.764 29.7283C129.786 28.4635 133.089 27.831 136.672 27.831C139.089 27.831 141.283 28.0681 143.254 28.5423C148.203 29.6795 152.386 32.6971 155.971 36.1914L147.464 44.0748C143.156 39.7564 137.501 38.6633 132.004 40.807C130.594 41.3569 129.463 42.3538 128.477 43.4828C127.492 44.6119 126.72 45.9443 126.16 47.4801C125.601 49.0158 125.321 50.6426 125.321 52.3603V52.4947C125.321 54.2566 125.601 55.9167 126.16 57.4752C126.72 59.0337 127.492 60.3778 128.477 61.5076C129.463 62.6374 130.638 63.5297 132.004 64.1845C133.37 64.8393 134.881 65.1667 136.537 65.1667C137.746 65.1667 138.854 65.0313 139.862 64.7603C143.122 63.7073 146.096 61.9254 148.447 59.4076L156.307 67.9815C155.187 69.5186 154.615 69.4135 153.295 70.7231C151.974 72.0328 150.474 73.1619 148.794 74.1103C147.115 75.0588 145.234 75.8043 143.152 76.3468C141.071 76.8893 138.731 77.1605 136.133 77.1605Z" fill="white"/>
</svg>
