<svg width="86" height="32" viewBox="0 0 86 32" fill="none" xmlns="http://www.w3.org/2000/svg">
<path d="M82.4429 5.2C83.8286 5.2 85.0429 4.05714 85.0429 2.6C85.0429 1.21429 83.9 0 82.4429 0C81.0571 0 79.8429 1.14286 79.8429 2.6C79.9143 4.05714 81.0571 5.2 82.4429 5.2ZM80.3 2.61428C80.3 1.41428 81.3143 0.399998 82.5143 0.399998C83.7143 0.399998 84.7286 1.41428 84.7286 2.61428C84.7286 3.81428 83.7143 4.82857 82.5143 4.82857C81.2429 4.82857 80.3 3.81428 80.3 2.61428ZM81.5 3.94286H82V2.8H82.5714L83.0143 3.87143H83.5857L83.0857 2.67143C83.2714 2.61429 83.5286 2.48571 83.5286 1.97143C83.5286 1.21428 82.9571 1.08572 82.4571 1.08572H81.5714V3.92857H81.5V3.94286ZM82 1.65714H82.5714C82.8857 1.65714 83.0143 1.78571 83.0143 2.04286C83.0143 2.3 82.8286 2.42857 82.5714 2.42857H82V1.65714ZM0 3.74286V0.714286H3.04286V3.75714V22.9286V22.9857V25.9571H0V22.9143V22.8571V3.74286ZM30.9429 16.7857C31 21.4 33.8571 25.0714 37.3286 25.0143C40.8143 24.9571 43.5286 21.1571 43.4714 16.6C43.4143 11.9857 40.5571 8.31429 37.0857 8.37143C33.6 8.42857 30.8714 12.1571 30.9429 16.7857ZM56.1286 11.2143C56.1857 11.4 56 10.9571 56 10.9571L56.1286 11.2143ZM58.2143 30.2571C58.3429 30 58.5286 29.6857 58.7857 29.1857L58.2143 30.2571ZM58.4 9.62857C58.4571 9.75714 58.4571 9.81429 58.5286 9.94286L59.5429 12.4714L58.4 9.62857ZM45.6143 22.2857C47.5143 24 49.1571 24.8857 51.3714 24.8857C53.5857 24.8857 55.5429 23.8143 55.5429 21.7286C55.5429 19.9571 54.0286 18.9429 51.2429 17.8C48.9 16.7857 47.2 16.0857 46.2429 14.6429C46.3714 15.2714 46.4286 15.9143 46.4286 16.6C46.4286 22.2286 42.3143 26.7857 37.2571 26.7857C32.2 26.7857 28.0857 22.2286 28.0857 16.6C28.0857 13.1857 29.6 10.2143 31.8857 8.31429H25.6857V22.9286V22.9857V26.0286H22.9714V23.1143C22.9714 23.0571 22.9714 22.9857 22.9714 22.9857V8.3H20.5714V6.47143H23.0429C23.3571 2.74286 25.6429 0.657144 28.8571 0.657144C30.9429 0.657144 32.0857 0.842858 32.7143 1.15714V3.68571C32.7143 3.87143 32.7143 4 32.7143 4H32.5857C31.5714 3.05714 30.6286 2.41428 28.3429 2.41428C26.5143 2.41428 25.3 3.87143 25.7429 6.45714H36.0571C36.5 6.4 36.9429 6.32857 37.3857 6.32857C41.0571 6.32857 44.2143 8.72857 45.6714 12.2143C45.6714 12.0286 45.6714 11.8286 45.6714 11.5857C45.6714 7.98572 49.2143 6.4 52.8143 6.4C52.9429 6.4 53.0714 6.4 53.2 6.4C54.4714 6.4 56.3 6.78572 57.4429 7.1L58.4571 9.57143L59.6 12.4143L62.6429 20L63.0286 21.2L63.4143 20L67.3429 10.3143C68.0429 7.65714 70.9429 6.51429 74.0429 6.51429C75.6286 6.51429 76.7571 6.7 78.1571 7.21429V10.1429C76.4429 8.87143 75.2429 8.18571 73.2857 8.18571C71.5714 8.18571 69.5571 8.94286 69.5571 11.4714C69.5 13.3714 70.6286 13.6857 73.9857 15.3286C76.7 16.5286 79.2429 17.8 79.2429 20.8286C79.2429 25.8857 74.2429 26.7714 71.8429 26.7714C69.6857 26.7714 67.6714 26.2714 66.5857 25.3143V21.9571L66.7714 22.0857C68.7286 23.9143 70.5 24.8714 72.7143 24.8714C74.9286 24.8714 76.8857 23.8 76.8857 21.7143C76.8857 19.9429 75.3714 18.9286 72.5857 17.7857C69.9286 16.6429 68.2143 15.8857 67.5286 13.9857C66.4571 16.5857 61.4571 28.7857 60.2571 31.3857H57.6L58.2286 30.1857L58.8 29.1143V29.0571C59.5 27.7286 60.4429 25.6429 61.3286 23.6143L56.1429 11.0857C56.0857 11.0286 56.0143 10.8286 55.8286 10.4571C55.4429 9.57143 55.0714 8.68572 53.9286 8.3C53.3571 8.11429 52.6571 7.98571 51.9714 7.98571C50.2571 7.98571 48.1143 8.74286 48.1143 11.2714C48.0571 13.1714 49.3143 13.4857 52.6714 15.1286C55.3857 16.3286 57.9286 17.6 57.9286 20.6286C57.9286 25.6857 52.9286 26.5714 50.5286 26.5714C48.6286 26.5714 46.8 26.1286 45.6571 25.4286L45.6143 22.2857ZM8.72857 6.65714L8.78571 8.87143V9C8.84286 8.94286 8.84286 8.81429 8.91429 8.74286C10.0571 7.54286 11.4429 6.34286 14.8 6.34286C18.0286 6.34286 20.0571 9.05714 20.1714 10.7714V22.8571V22.9143V25.9571H17.4571V22.3571V12.0429C17.4571 9.88571 15.5571 8.37143 13.2857 8.37143C11.3857 8.37143 8.91429 10.0857 8.85714 11.8571V22.9286V22.9857V25.9571H6.07143V22.9143V9.18571V6.65714H6.57143H8.08571H8.72857Z" fill="#007CC3"/>
</svg>
