<svg xmlns="http://www.w3.org/2000/svg" width="166" height="41" fill="none" viewBox="0 0 166 41"><path fill="#005BAA" d="M78.14 40.3808C77.002 40.3371 75.8671 40.2336 74.74 40.0708C73.6421 39.9159 72.5562 39.6854 71.49 39.3808C71.01 39.2408 70.49 39.0808 70.06 38.9008C70.0006 38.8763 69.9436 38.8462 69.89 38.8108L71.32 34.2308C72.48 34.6208 73.61 35.0408 74.76 35.3708C76.4848 35.8998 78.3066 36.0331 80.09 35.7608C81.1026 35.6233 82.0657 35.2384 82.8941 34.6401C83.7226 34.0419 84.3909 33.2487 84.84 32.3308C85.5563 30.8703 86.1064 29.334 86.48 27.7508C86.59 27.3408 86.69 26.9408 86.8 26.5408H86.71L86.5 26.8508C85.8305 27.9406 84.9142 28.8577 83.8251 29.5282C82.736 30.1987 81.5045 30.6038 80.23 30.7108C79.0864 30.8645 77.9232 30.769 76.82 30.4308C75.7165 30.077 74.7165 29.4581 73.9076 28.6283C73.0987 27.7985 72.5055 26.783 72.18 25.6708C71.4857 23.6127 71.2937 21.4183 71.62 19.2708C71.8945 16.806 72.7928 14.4519 74.23 12.4308C74.9956 11.3023 75.9825 10.341 77.1308 9.60525C78.279 8.86953 79.5648 8.37472 80.91 8.15081C82.2547 7.84153 83.6561 7.88131 84.9811 8.26637C86.3061 8.65144 87.5105 9.36899 88.48 10.3508C88.86 10.7508 89.18 11.2108 89.58 11.7108L90.24 8.52081H95.73C95.45 9.79081 95.17 11.0408 94.9 12.3008C93.7067 17.8541 92.52 23.4275 91.34 29.0208C90.9051 31.4565 89.9834 33.7795 88.63 35.8508C88.1328 36.5912 87.5412 37.2635 86.87 37.8508C86.2256 38.4022 85.509 38.8631 84.74 39.2208C83.9577 39.5877 83.1355 39.8628 82.29 40.0408C81.72 40.1608 81.16 40.2408 80.59 40.3208C80.0267 40.3977 79.4586 40.4345 78.89 40.4308L78.14 40.3808ZM77.49 21.2208C77.4544 22.2999 77.6737 23.3723 78.13 24.3508C78.3261 24.8189 78.6352 25.231 79.0296 25.5504C79.424 25.8697 79.8914 26.0863 80.39 26.1808C81.2313 26.3616 82.105 26.3222 82.9266 26.0664C83.7483 25.8107 84.49 25.3472 85.08 24.7208C86.2109 23.5015 87.0249 22.023 87.4504 20.4152C87.8758 18.8075 87.8997 17.1199 87.52 15.5008C87.3427 14.5703 86.826 13.7389 86.0702 13.1679C85.3145 12.597 84.3735 12.3271 83.43 12.4108C82.6997 12.4308 81.9843 12.6222 81.3415 12.9696C80.6988 13.3171 80.1468 13.8107 79.73 14.4108C78.2867 16.3893 77.503 18.7719 77.49 21.2208ZM23.9 40.3608H23.74C23.55 40.3608 23.36 40.3108 23.17 40.3108L21.83 40.1408C21.23 40.0408 20.64 39.9008 20.01 39.7708L21.28 35.4408C21.88 35.5808 22.44 35.7408 23.01 35.8408C23.6531 35.9841 24.3224 35.9591 24.953 35.7682C25.5837 35.5772 26.1544 35.2268 26.61 34.7508C27.42 33.9008 28.94 31.8008 28.94 31.8008C28.94 31.8008 28.89 31.6008 28.86 31.4108C28.2867 27.9108 27.6967 24.4075 27.09 20.9008L25.5 11.4708C25.33 10.4708 25.17 9.47081 25 8.47081H30.88C31.5733 13.9841 32.28 19.5008 33 25.0208H33.1C33.18 24.8808 33.27 24.7608 33.35 24.6208L41.76 8.82081L42 8.46081H48.26C48.1998 8.59078 48.1331 8.71761 48.06 8.84081L33 34.4908C32.1421 36.0929 30.9805 37.5127 29.58 38.6708C28.8891 39.1952 28.1196 39.607 27.3 39.8908C26.3537 40.1999 25.3655 40.3618 24.37 40.3708L23.9 40.3608ZM0 29.5508L1.52 24.5508C2.84 25.0408 4.12 25.5508 5.43 25.9908C7.23746 26.6242 9.19015 26.718 11.05 26.2608C12.0938 26.0217 13.0332 25.4539 13.73 24.6408C14.0951 24.223 14.3715 23.7354 14.5426 23.2076C14.7137 22.6798 14.7759 22.1227 14.7254 21.5702C14.6749 21.0176 14.5128 20.4811 14.2489 19.993C13.985 19.505 13.6247 19.0756 13.19 18.7308C12.3849 18.1158 11.547 17.545 10.68 17.0208C9.48 16.2508 8.21 15.5808 7.09 14.7208C6.11144 13.9794 5.35011 12.9887 4.88567 11.8522C4.42124 10.7157 4.27076 9.47535 4.45 8.26081C4.84 4.26081 7.26 1.89081 10.97 0.690811C12.7444 0.153224 14.5984 -0.0734492 16.45 0.0208106C18.6798 0.0529571 20.8905 0.437714 23 1.16081L23.5 1.36081L22.06 6.22081C21.19 5.90081 20.36 5.54081 19.49 5.30081C17.6115 4.6442 15.5827 4.54693 13.65 5.02081C13.0658 5.17811 12.5093 5.42432 12 5.75081C11.6599 5.9625 11.3671 6.24215 11.1401 6.57222C10.9131 6.9023 10.7566 7.2757 10.6806 7.66904C10.6045 8.06237 10.6105 8.46718 10.6982 8.85809C10.7859 9.249 10.9533 9.6176 11.19 9.94081C11.6335 10.5428 12.1743 11.0666 12.79 11.4908C13.73 12.1708 14.79 12.7208 15.74 13.3508C16.5794 13.8634 17.3906 14.4209 18.17 15.0208C19.0448 15.7105 19.7534 16.588 20.2433 17.5885C20.7331 18.589 20.9918 19.6869 21 20.8008C21.1252 22.7501 20.6767 24.6935 19.71 26.3908C18.4816 28.3473 16.5663 29.774 14.34 30.3908C11.8733 31.1533 9.27578 31.3984 6.71 31.1108C4.50682 30.9054 2.33911 30.4181 0.26 29.6608L0 29.5508ZM101.55 21.3608C101.4 24.0908 102.55 26.3608 105.61 26.8708C108.479 27.2986 111.411 26.8853 114.05 25.6808L114.37 25.5408L114.51 25.4908C114.45 25.9208 114.4 26.3508 114.33 26.7608C114.18 27.7608 114.02 28.6808 113.87 29.6308L113.81 30.0008C113.699 30.0434 113.585 30.0801 113.47 30.1108C110.892 30.9585 108.181 31.3279 105.47 31.2008C102.908 31.1621 100.448 30.1916 98.55 28.4708C97.1775 27.1043 96.3281 25.2994 96.15 23.3708C95.8644 21.3046 96.0477 19.2005 96.6865 17.2149C97.3254 15.2292 98.4032 13.4129 99.84 11.9008C101.784 9.71028 104.477 8.32624 107.39 8.02081C109.428 7.75386 111.501 8.04056 113.39 8.85081C114.512 9.3262 115.491 10.0865 116.23 11.0564C116.968 12.0263 117.441 13.1723 117.6 14.3808C117.889 16.3764 117.825 18.4075 117.41 20.3808L117.23 21.3808H101.55V21.3608ZM102.32 17.4408H112.16C112.252 16.7381 112.286 16.029 112.26 15.3208C112.269 14.5988 112.016 13.8979 111.55 13.3469C111.083 12.7958 110.434 12.4315 109.72 12.3208C108.853 12.1757 107.967 12.1757 107.1 12.3208C105.899 12.6321 104.812 13.2789 103.965 14.1857C103.119 15.0924 102.548 16.2215 102.32 17.4408ZM164.77 21.3608H149C148.992 21.7118 149.012 22.0629 149.06 22.4108C149.159 23.3438 149.481 24.2391 150 25.0208C150.431 25.6329 151.023 26.114 151.71 26.4108C152.183 26.6175 152.681 26.7653 153.19 26.8508C156.06 27.2849 158.995 26.8677 161.63 25.6508L162.09 25.4608C161.86 26.9408 161.36 29.9808 161.36 29.9808L161.03 30.0808C159.4 30.5855 157.726 30.9371 156.03 31.1308C154.137 31.3469 152.22 31.225 150.37 30.7708C148.596 30.4086 146.988 29.4825 145.784 28.1308C144.58 26.7791 143.845 25.0742 143.69 23.2708C143.316 20.4048 143.843 17.4934 145.197 14.9402C146.552 12.3869 148.667 10.3182 151.25 9.02081C152.696 8.33128 154.269 7.94538 155.87 7.88691C157.471 7.82843 159.067 8.09862 160.56 8.68081C161.808 9.12688 162.904 9.91817 163.72 10.9626C164.536 12.0071 165.039 13.2618 165.17 14.5808C165.424 16.8471 165.289 19.1401 164.77 21.3608ZM149.77 17.3608H159.34C159.59 17.3608 159.7 17.2508 159.7 17.0208C159.745 16.3015 159.745 15.5801 159.7 14.8608C159.651 14.2144 159.388 13.6026 158.954 13.1213C158.52 12.6399 157.938 12.3162 157.3 12.2008C156.704 12.0843 156.096 12.0473 155.49 12.0908C154.249 12.1172 153.057 12.5852 152.13 13.4108C151.037 14.5273 150.24 15.8987 149.81 17.4008L149.77 17.3608ZM138.63 30.7208H132.89C133.05 29.9308 133.21 29.1508 133.36 28.3708C134.07 24.8908 134.81 21.3708 135.46 17.9308C135.661 16.9272 135.708 15.8987 135.6 14.8808C135.506 14.1777 135.154 13.5345 134.613 13.0762C134.071 12.6179 133.379 12.3772 132.67 12.4008C131.771 12.3558 130.877 12.5483 130.076 12.9591C129.276 13.37 128.597 13.9845 128.11 14.7408C127.219 16.0956 126.611 17.6158 126.32 19.2108C125.5 22.9408 124.71 26.6808 123.92 30.4208C123.92 30.5308 123.85 30.7408 123.85 30.7408H118.11L122.87 8.48081H128.39L128 10.7108C128.19 10.5608 128.3 10.4908 128.39 10.4008C129.757 9.1303 131.475 8.30095 133.32 8.02081C136.16 7.70081 138.71 8.29081 140.47 10.7608C140.997 11.5042 141.372 12.3447 141.573 13.2337C141.774 14.1228 141.797 15.0429 141.64 15.9408C141.23 18.5908 140.64 21.2208 140.11 23.8508C139.65 26.1508 139.13 28.4108 138.63 30.7208ZM66.14 30.7208H60.4C60.54 30.0708 60.66 29.4508 60.78 28.8408C61.52 25.2308 62.28 21.6308 62.97 18.0108C63.15 17.0722 63.2104 16.1146 63.15 15.1608C63.1111 14.3995 62.775 13.6839 62.214 13.1677C61.653 12.6516 60.9119 12.3762 60.15 12.4008C59.2725 12.3622 58.3999 12.5509 57.6168 12.9486C56.8337 13.3463 56.1665 13.9396 55.68 14.6708C54.7481 16.0588 54.1147 17.6252 53.82 19.2708C53.02 22.9408 52.25 26.6208 51.47 30.2708C51.47 30.4008 51.4 30.5408 51.36 30.6908H45.64C47.22 23.2808 48.8 15.8908 50.39 8.46081H55.9L55.51 10.6808L55.91 10.3708C57.2808 9.11121 58.9983 8.29249 60.84 8.02081C63.56 7.71081 66.01 8.26081 67.84 10.5108C68.7004 11.6439 69.1831 13.0186 69.22 14.4408C69.2471 16.1888 69.0317 17.932 68.58 19.6208L66.24 30.3108L66.14 30.7208Z"/></svg>