<svg xmlns="http://www.w3.org/2000/svg" xmlns:xlink="http://www.w3.org/1999/xlink" id="Layer_1" x="0" y="0" version="1.1" viewBox="0 0 384 135.18" style="enable-background:new 0 0 384 135.18" xml:space="preserve"><style type="text/css">.st0{fill:#fff}</style><g><g><path d="M369.22,0c-8.16,0-14.78,6.62-14.78,14.78c0,8.16,6.62,14.78,14.78,14.78S384,22.94,384,14.78 C384,6.62,377.38,0,369.22,0z M369.22,27.87c-7.15,0-12.95-5.8-12.95-12.95c0-7.15,5.8-12.95,12.95-12.95 c7.15,0,12.95,5.79,12.95,12.95C382.17,22.07,376.37,27.87,369.22,27.87z" class="st0"/><g><path d="M367.36,15.55h-1.14v5.16c0,0.68-0.15,1.18-0.45,1.5c-0.3,0.32-0.69,0.48-1.17,0.48 c-0.52,0-0.92-0.17-1.21-0.5s-0.43-0.83-0.43-1.48V8.34c0-0.7,0.16-1.21,0.47-1.52c0.31-0.31,0.82-0.47,1.52-0.47h5.3 c0.73,0,1.36,0.03,1.87,0.09c0.52,0.06,0.99,0.19,1.4,0.38c0.5,0.21,0.95,0.52,1.34,0.91c0.39,0.39,0.68,0.85,0.88,1.38 c0.2,0.52,0.3,1.08,0.3,1.66c0,1.2-0.34,2.16-1.01,2.87c-0.68,0.72-1.7,1.22-3.08,1.52c0.58,0.31,1.13,0.76,1.66,1.36 c0.53,0.6,1,1.24,1.41,1.91c0.41,0.68,0.73,1.29,0.96,1.83c0.23,0.54,0.35,0.92,0.35,1.12c0,0.21-0.07,0.42-0.2,0.63 c-0.14,0.21-0.32,0.37-0.55,0.49s-0.5,0.18-0.81,0.18c-0.37,0-0.67-0.09-0.92-0.26c-0.25-0.17-0.46-0.39-0.64-0.65 s-0.42-0.65-0.73-1.16l-1.3-2.17c-0.47-0.8-0.89-1.4-1.26-1.82c-0.37-0.42-0.74-0.7-1.12-0.86 C368.41,15.62,367.93,15.55,367.36,15.55z M369.22,8.79h-3v4.42h2.92c0.78,0,1.44-0.07,1.97-0.2c0.53-0.14,0.94-0.37,1.22-0.69 s0.42-0.77,0.42-1.34c0-0.45-0.11-0.84-0.34-1.18c-0.23-0.34-0.54-0.59-0.94-0.76C371.09,8.87,370.34,8.79,369.22,8.79z" class="st0"/></g></g><g><g><path d="M2.85,94.47C1.27,94.47,0,93.19,0,91.62v-2.57c0-1.57,1.27-2.85,2.85-2.85h10.47c0.18,0,0.26-0.01,0.28-0.02 c1.45-0.27,2.39-1.16,2.79-2.66c0.04-0.14,0.06-0.31,0.06-0.49V27.51c0-0.04,0-0.09,0-0.13c0.18-3.81-1.8-4.97-3.05-5.33H2.85 C1.27,22.05,0,20.78,0,19.21v-1.91c0-1.57,1.27-2.85,2.85-2.85h77.22c10.27,0,29.72,4.38,29.84,20.96 c0.02,0.85-0.03,6.16-4.49,11.11c-2.02,2.25-4.61,4.08-7.74,5.48c11.32,3.36,17.69,10.06,17.95,19.38 c0.05,0.92,0.23,8.13-5.52,14.31c-5.41,5.82-14.13,8.78-25.9,8.78H2.85z M67.05,86.63c0.57,0,1.11-0.18,1.56-0.52 c0.96-0.73,5.78-4.86,5.78-14.18c0-0.07,0-0.13,0.01-0.2c0.02-0.37,0.35-9.5-7.22-14.18c-0.34-0.21-0.78-0.32-1.26-0.32H55.1 v29.4H67.05z M63.3,49.12c0.65,0,1.27-0.23,1.74-0.65c2.09-1.86,5.58-5.96,5.58-12.58c0-0.06,0-0.12,0-0.18 c0-0.06,0.28-8.07-5.24-12.39c-0.53-0.42-1.27-0.65-2.07-0.65H55.1v26.45H63.3z" class="st0"/><path d="M112.78,71.52c-0.41-15.73-20.3-18.61-30.96-19.02c26.11-1.3,25.24-17.02,25.24-17.02 c-0.1-18.16-26.99-18.16-26.99-18.16H2.84v1.91h10.65c0.18,0,0.36,0.02,0.53,0.07c1.21,0.31,5.56,1.89,5.27,8.24v55.53 c0,0.41-0.05,0.82-0.15,1.22c-0.36,1.35-1.5,4.08-5.02,4.73c-0.26,0.05-0.53,0.06-0.8,0.06H2.84v2.57h49.43H84.2 C114.25,91.65,112.78,71.52,112.78,71.52z M51.98,19.13h10.68c1.52,0,3.02,0.46,4.22,1.39c7.05,5.53,6.55,15.26,6.55,15.26 c0,7.91-4.15,12.26-6.72,14.55c-1.12,0.99-2.56,1.53-4.06,1.53H51.98V19.13z M77.16,71.77c0,9.49-4.3,14.61-7.4,16.96 C68.67,89.56,67.34,90,65.97,90h-14V53.54h12.82c1.12,0,2.23,0.28,3.19,0.87C77.83,60.49,77.16,71.77,77.16,71.77z" class="st0"/></g><g><path d="M238.69,94.44c-1.57,0-2.85-1.27-2.85-2.85v-2.57c0-1.57,1.27-2.85,2.85-2.85h10.47 c0.18,0,0.26-0.01,0.28-0.02c1.45-0.27,2.39-1.16,2.79-2.66c0.04-0.14,0.06-0.31,0.06-0.49V27.49c0-0.04,0-0.09,0-0.13 c0.18-3.81-1.8-4.97-3.05-5.33h-10.55c-1.57,0-2.85-1.27-2.85-2.85v-1.91c0-1.57,1.27-2.85,2.85-2.85h77.22 c10.27,0,29.72,4.38,29.84,20.96c0.02,0.85-0.03,6.16-4.49,11.11c-2.02,2.25-4.61,4.08-7.74,5.48 c11.32,3.36,17.69,10.06,17.95,19.38c0.05,0.92,0.23,8.13-5.52,14.31c-5.41,5.82-14.13,8.78-25.9,8.78H238.69z M302.89,86.61 c0.57,0,1.11-0.18,1.56-0.52c0.96-0.73,5.78-4.86,5.78-14.18c0-0.07,0-0.13,0.01-0.2c0.02-0.37,0.35-9.5-7.22-14.18 c-0.34-0.21-0.78-0.32-1.26-0.32h-10.81v29.4H302.89z M299.14,49.09c0.65,0,1.27-0.23,1.74-0.65c2.09-1.86,5.58-5.96,5.58-12.58 c0-0.06,0-0.12,0-0.18c0-0.06,0.28-8.07-5.24-12.39c-0.53-0.42-1.27-0.65-2.07-0.65h-8.22v26.45H299.14z" class="st0"/><path d="M348.62,71.49c-0.41-15.73-20.3-18.61-30.96-19.02c26.11-1.3,25.24-17.02,25.24-17.02 c-0.1-18.16-26.99-18.16-26.99-18.16h-77.22v1.91h10.65c0.18,0,0.36,0.02,0.53,0.07c1.21,0.31,5.56,1.89,5.27,8.24v55.53 c0,0.41-0.05,0.82-0.15,1.22c-0.36,1.35-1.5,4.08-5.02,4.73c-0.26,0.05-0.53,0.06-0.8,0.06h-10.47v2.57h49.43h31.92 C350.1,91.62,348.62,71.49,348.62,71.49z M287.82,19.11h10.68c1.52,0,3.02,0.46,4.22,1.39c7.05,5.53,6.55,15.26,6.55,15.26 c0,7.91-4.15,12.26-6.72,14.55c-1.12,0.99-2.56,1.53-4.06,1.53h-10.66V19.11z M313,71.75c0,9.49-4.3,14.61-7.4,16.96 c-1.09,0.83-2.42,1.27-3.78,1.27h-14V53.52h12.82c1.12,0,2.23,0.28,3.19,0.87C313.67,60.47,313,71.75,313,71.75z" class="st0"/></g><path d="M131.76,94.58c-1.23,0-2.32-0.79-2.71-1.96s0.03-2.45,1.02-3.18l30.48-22.29l14.18-12.41 c0.61-0.61,7.98-8.18,8.35-16.73c0.01-0.13,0.02-0.25,0.04-0.37c0.07-0.43,1.69-10.88-8.51-15.49c-1.28-0.58-3.2-0.9-5.39-0.9 c-7.03,0-14.36,3.05-15.21,5.45c-0.26,0.74,0.73,1.82,1.45,2.27c0.02,0.02,0.61,0.33,2.84,0.33c0.68,0,1.38-0.03,1.99-0.05 c0.48-0.02,0.91-0.04,1.27-0.04l0.1,0c5.92,0,10.05,6.06,10.05,11.49c0,4.83-2.41,12.95-18.59,13.09l-0.19,0 c-6,0-12.09-2.42-15.88-6.32c-2.58-2.65-3.89-5.77-3.8-9.03c0.46-16.58,24.62-25.53,47.11-25.53c9.97,0,19.27,1.76,26.2,4.95 c8.33,3.84,13.26,9.67,14.24,16.86c0.01,0.1,0.32,2.36,0.32,3.61c-0.01,3.23-1.84,19-35.39,28.22h23.8c0.5,0,0.99-0.15,1.41-0.43 l2.19-1.46c0.61-0.4,1.11-0.96,1.44-1.6l4.45-8.5c0.49-0.94,1.46-1.53,2.52-1.53h1.31c0.87,0,1.69,0.4,2.23,1.08 c0.54,0.68,0.74,1.57,0.54,2.42l-8.48,35.86c-0.3,1.28-1.45,2.19-2.77,2.19H131.76z" class="st0"/><path d="M218.26,38.31c-0.01,5.06-5.29,19.35-39.42,27l-12.39,3.41v0.65h43.06c1.06,0,2.1-0.31,2.98-0.9l2.19-1.46 c1.01-0.67,1.83-1.58,2.39-2.65l4.45-8.5h1.31l-8.48,35.86h-82.6l30.58-22.37l14.34-12.55c0,0,8.82-8.53,9.25-18.7 c0,0,2.29-12.96-10.14-18.57c-9-4.06-32.37,3.3-22.12,11.62c1.67,1.36,5.93,0.89,7.92,0.87c4.48-0.05,7.27,4.89,7.27,8.65 c0,7.83-7.48,10.17-15.77,10.24c-8.28,0.07-17.2-5.31-17-12.42c0.76-27.07,77.95-32.18,81.88-3.41 C218.08,35.89,218.26,37.51,218.26,38.31z" class="st0"/><g><path d="M243.53,132.22c-1.57,0-2.85-1.27-2.85-2.85v-2.61c0-1.47,1.12-2.7,2.59-2.83c5.08-0.46,6.24-1.16,6.49-1.53 c-0.02-0.53-0.49-1.69-1.42-3.44l-4.46-8.77h-26.34l-2.52,5.06c-0.57,1.13-2.32,4.57-2.32,5.86c0,1.13,0.59,2.28,7.6,2.82 c1.48,0.12,2.62,1.35,2.62,2.84v2.61c0,1.57-1.27,2.85-2.85,2.85h-31.12c-1.57,0-2.85-1.27-2.85-2.85v-2.61 c0-1.42,1.05-2.63,2.46-2.82l1.23-0.17c4.92-0.85,6.21-1.56,8.62-4.74c2.41-3.22,5.2-8.76,7.04-12.43l0.23-0.46l19.41-37.4 c0.49-0.94,1.46-1.53,2.53-1.53h10.8c1.06,0,2.03,0.59,2.52,1.53l23.92,45.73c0.27,0.51,0.55,1.04,0.83,1.57 c2.38,4.59,3.95,7.63,10.58,7.88c1.53,0.06,2.74,1.31,2.74,2.84v2.61c0,1.57-1.27,2.85-2.85,2.85H243.53z M238.88,100.57 l-8.55-16.71L222,100.57H238.88z" class="st0"/><path d="M262.34,115.79c2.9,5.4,4.64,10.63,13.82,10.98v2.61h-32.63v-2.61c3.83-0.35,9.06-0.96,9.06-4.36 c0-1.48-1.04-3.48-1.74-4.79l-5.23-10.28h-29.85l-3.25,6.53c-0.93,1.83-2.67,5.23-2.67,7.23c0,4.36,4.65,5.23,10.22,5.66v2.61 h-31.12v-2.61l1.28-0.17c5.57-0.96,7.55-2,10.45-5.84c2.67-3.57,5.57-9.41,7.55-13.33l19.39-37.37h10.8L262.34,115.79z M243.53,103.42l-13.24-25.87l-12.89,25.87H243.53z" class="st0"/></g><g><path d="M115.93,135.18c-5.42,0-15.23-0.67-23.63-4.84l-0.88,1.78c-0.48,0.97-1.47,1.58-2.55,1.58h-4.3 c-1.18,0-2.24-0.73-2.66-1.84l-7.55-19.95c-0.29-0.76-0.24-1.61,0.14-2.33c0.38-0.72,1.05-1.25,1.84-1.44l4.3-1.05 c0.22-0.05,0.45-0.08,0.67-0.08c0.96,0,1.88,0.49,2.41,1.33c4.88,7.75,15.91,16.79,30.92,16.79c9.05,0,18.41-3.76,18.41-10.05 c0-4.6-5.12-5.91-13.56-7.51l-1.21-0.23L105.44,105c-6.4-1.28-12.89-2.76-17.32-4.93c-6.28-2.9-10.33-8.32-10.33-13.81 c0-5.81,3.62-11.19,9.92-14.76c5.33-2.89,11.89-4.29,20.1-4.29c4.52,0,12.68,0.51,19.96,3.62l0.2-0.45 c0.46-1.03,1.48-1.69,2.6-1.69h4.18c1.12,0,2.14,0.66,2.6,1.68l7.08,15.77c0.34,0.76,0.33,1.62-0.02,2.37 c-0.35,0.75-1.01,1.31-1.81,1.53l-3.72,1.05c-0.25,0.07-0.51,0.11-0.77,0.11c-0.83,0-1.63-0.36-2.17-1.01 c-7.24-8.58-16.28-12.93-26.86-12.93c-6.67,0-14.11,2.62-14.11,6.39c0,4.42,8.83,6.05,14.67,7.12l0.54,0.1L122,92.95 c11.92,2.13,28.25,5.05,28.25,19.79C150.25,127.32,132.57,135.18,115.93,135.18z" class="st0"/><path d="M141.83,87.3l-3.72,1.05c-6.62-7.84-15.91-13.94-29.03-13.94c-7.32,0-16.95,2.87-16.95,9.23 c0,6.97,10.45,8.71,17.54,10.02l11.85,2.09c12.66,2.26,25.9,5.05,25.9,16.99c0,12.63-16.26,19.6-31.47,19.6 c-8.71,0-18.12-1.74-24.85-5.92l-2.21,4.44h-4.3l-7.55-19.95l4.3-1.05c6.04,9.58,18.35,18.12,33.33,18.12 c10.22,0,21.25-4.36,21.25-12.89c0-7.67-8.94-8.97-17.07-10.54l-12.89-2.35c-5.23-1.05-12.19-2.53-16.61-4.7 c-5.11-2.35-8.71-6.71-8.71-11.24c0-4.88,3.25-9.32,8.48-12.28c5.46-2.96,12.08-3.92,18.7-3.92c7.32,0,15.33,1.31,21.37,4.62 l1.39-3.14h4.18L141.83,87.3z" class="st0"/></g></g></g></svg>